ISO-10303-21;
HEADER;
/* Generated by software containing ST-Developer
 * from STEP Tools, Inc. (www.steptools.com) 
 */

FILE_DESCRIPTION(
/* description */ (''),
/* implementation_level */ '2;1');

FILE_NAME(
/* name */ 'SCCV60B107MRB-mid-position.step.step',
/* time_stamp */ '2024-06-08T22:08:06+02:00',
/* author */ (''),
/* organization */ (''),
/* preprocessor_version */ 'ST-DEVELOPER v20',
/* originating_system */ 'Autodesk Translation Framework v13.14.0.145',

/* authorisation */ '');

FILE_SCHEMA (('AUTOMOTIVE_DESIGN { 1 0 10303 214 3 1 1 }'));
ENDSEC;

DATA;
#10=MECHANICAL_DESIGN_GEOMETRIC_PRESENTATION_REPRESENTATION('',(#234,#235,
#236,#237,#238,#239,#240,#241,#242),#488);
#11=SHAPE_REPRESENTATION_RELATIONSHIP('SRR','None',#495,#12);
#12=ADVANCED_BREP_SHAPE_REPRESENTATION('',(#13),#487);
#13=MANIFOLD_SOLID_BREP('Body1',#260);
#14=TOROIDAL_SURFACE('',#284,8.,1.);
#15=TOROIDAL_SURFACE('',#293,8.,1.);
#16=TOROIDAL_SURFACE('',#301,1.,0.4);
#17=TOROIDAL_SURFACE('',#311,1.,0.4);
#18=FACE_BOUND('',#47,.T.);
#19=FACE_BOUND('',#48,.T.);
#20=FACE_BOUND('',#54,.T.);
#21=FACE_BOUND('',#57,.T.);
#22=PLANE('',#277);
#23=PLANE('',#283);
#24=PLANE('',#292);
#25=PLANE('',#296);
#26=PLANE('',#306);
#27=PLANE('',#316);
#28=FACE_OUTER_BOUND('',#45,.T.);
#29=FACE_OUTER_BOUND('',#46,.T.);
#30=FACE_OUTER_BOUND('',#49,.T.);
#31=FACE_OUTER_BOUND('',#50,.T.);
#32=FACE_OUTER_BOUND('',#51,.T.);
#33=FACE_OUTER_BOUND('',#52,.T.);
#34=FACE_OUTER_BOUND('',#53,.T.);
#35=FACE_OUTER_BOUND('',#55,.T.);
#36=FACE_OUTER_BOUND('',#56,.T.);
#37=FACE_OUTER_BOUND('',#58,.T.);
#38=FACE_OUTER_BOUND('',#59,.T.);
#39=FACE_OUTER_BOUND('',#60,.T.);
#40=FACE_OUTER_BOUND('',#61,.T.);
#41=FACE_OUTER_BOUND('',#62,.T.);
#42=FACE_OUTER_BOUND('',#63,.T.);
#43=FACE_OUTER_BOUND('',#64,.T.);
#44=FACE_OUTER_BOUND('',#65,.T.);
#45=EDGE_LOOP('',(#161,#162,#163,#164));
#46=EDGE_LOOP('',(#165));
#47=EDGE_LOOP('',(#166));
#48=EDGE_LOOP('',(#167));
#49=EDGE_LOOP('',(#168,#169,#170,#171));
#50=EDGE_LOOP('',(#172));
#51=EDGE_LOOP('',(#173,#174,#175,#176,#177));
#52=EDGE_LOOP('',(#178,#179,#180,#181,#182,#183));
#53=EDGE_LOOP('',(#184));
#54=EDGE_LOOP('',(#185));
#55=EDGE_LOOP('',(#186,#187,#188,#189,#190));
#56=EDGE_LOOP('',(#191));
#57=EDGE_LOOP('',(#192));
#58=EDGE_LOOP('',(#193,#194,#195,#196,#197));
#59=EDGE_LOOP('',(#198,#199,#200,#201,#202,#203));
#60=EDGE_LOOP('',(#204,#205,#206,#207,#208));
#61=EDGE_LOOP('',(#209));
#62=EDGE_LOOP('',(#210,#211,#212,#213,#214));
#63=EDGE_LOOP('',(#215,#216,#217,#218,#219,#220));
#64=EDGE_LOOP('',(#221,#222,#223,#224,#225));
#65=EDGE_LOOP('',(#226));
#66=LINE('',#417,#73);
#67=LINE('',#428,#74);
#68=LINE('',#441,#75);
#69=LINE('',#455,#76);
#70=LINE('',#466,#77);
#71=LINE('',#472,#78);
#72=LINE('',#483,#79);
#73=VECTOR('',#323,7.);
#74=VECTOR('',#336,7.);
#75=VECTOR('',#353,9.);
#76=VECTOR('',#372,0.4);
#77=VECTOR('',#387,0.4);
#78=VECTOR('',#394,0.4);
#79=VECTOR('',#409,0.4);
#80=CIRCLE('',#275,7.);
#81=CIRCLE('',#276,7.);
#82=CIRCLE('',#278,0.4);
#83=CIRCLE('',#279,0.4);
#84=CIRCLE('',#281,7.);
#85=CIRCLE('',#282,7.);
#86=CIRCLE('',#285,8.);
#87=CIRCLE('',#286,1.);
#88=CIRCLE('',#287,9.);
#89=CIRCLE('',#288,9.);
#90=CIRCLE('',#290,9.);
#91=CIRCLE('',#291,9.);
#92=CIRCLE('',#294,1.);
#93=CIRCLE('',#295,8.);
#94=CIRCLE('',#298,0.4);
#95=CIRCLE('',#299,0.4);
#96=CIRCLE('',#300,0.4);
#97=CIRCLE('',#302,0.6);
#98=CIRCLE('',#303,0.4);
#99=CIRCLE('',#304,0.4);
#100=CIRCLE('',#308,0.4);
#101=CIRCLE('',#309,0.4);
#102=CIRCLE('',#310,0.4);
#103=CIRCLE('',#312,0.6);
#104=CIRCLE('',#313,0.4);
#105=CIRCLE('',#314,0.4);
#106=VERTEX_POINT('',#414);
#107=VERTEX_POINT('',#416);
#108=VERTEX_POINT('',#420);
#109=VERTEX_POINT('',#422);
#110=VERTEX_POINT('',#425);
#111=VERTEX_POINT('',#427);
#112=VERTEX_POINT('',#432);
#113=VERTEX_POINT('',#434);
#114=VERTEX_POINT('',#436);
#115=VERTEX_POINT('',#440);
#116=VERTEX_POINT('',#442);
#117=VERTEX_POINT('',#447);
#118=VERTEX_POINT('',#452);
#119=VERTEX_POINT('',#454);
#120=VERTEX_POINT('',#456);
#121=VERTEX_POINT('',#460);
#122=VERTEX_POINT('',#462);
#123=VERTEX_POINT('',#469);
#124=VERTEX_POINT('',#471);
#125=VERTEX_POINT('',#473);
#126=VERTEX_POINT('',#477);
#127=VERTEX_POINT('',#479);
#128=EDGE_CURVE('',#106,#106,#80,.T.);
#129=EDGE_CURVE('',#106,#107,#66,.T.);
#130=EDGE_CURVE('',#107,#107,#81,.T.);
#131=EDGE_CURVE('',#108,#108,#82,.T.);
#132=EDGE_CURVE('',#109,#109,#83,.T.);
#133=EDGE_CURVE('',#110,#110,#84,.T.);
#134=EDGE_CURVE('',#110,#111,#67,.T.);
#135=EDGE_CURVE('',#111,#111,#85,.T.);
#136=EDGE_CURVE('',#112,#112,#86,.T.);
#137=EDGE_CURVE('',#112,#113,#87,.T.);
#138=EDGE_CURVE('',#113,#114,#88,.T.);
#139=EDGE_CURVE('',#114,#113,#89,.T.);
#140=EDGE_CURVE('',#114,#115,#68,.T.);
#141=EDGE_CURVE('',#116,#115,#90,.T.);
#142=EDGE_CURVE('',#115,#116,#91,.T.);
#143=EDGE_CURVE('',#116,#117,#92,.T.);
#144=EDGE_CURVE('',#117,#117,#93,.T.);
#145=EDGE_CURVE('',#118,#118,#94,.T.);
#146=EDGE_CURVE('',#118,#119,#69,.T.);
#147=EDGE_CURVE('',#119,#120,#95,.T.);
#148=EDGE_CURVE('',#120,#119,#96,.T.);
#149=EDGE_CURVE('',#120,#121,#97,.T.);
#150=EDGE_CURVE('',#121,#122,#98,.T.);
#151=EDGE_CURVE('',#122,#121,#99,.T.);
#152=EDGE_CURVE('',#122,#109,#70,.T.);
#153=EDGE_CURVE('',#123,#123,#100,.T.);
#154=EDGE_CURVE('',#123,#124,#71,.T.);
#155=EDGE_CURVE('',#124,#125,#101,.T.);
#156=EDGE_CURVE('',#125,#124,#102,.T.);
#157=EDGE_CURVE('',#125,#126,#103,.T.);
#158=EDGE_CURVE('',#126,#127,#104,.T.);
#159=EDGE_CURVE('',#127,#126,#105,.T.);
#160=EDGE_CURVE('',#127,#108,#72,.T.);
#161=ORIENTED_EDGE('',*,*,#128,.F.);
#162=ORIENTED_EDGE('',*,*,#129,.T.);
#163=ORIENTED_EDGE('',*,*,#130,.T.);
#164=ORIENTED_EDGE('',*,*,#129,.F.);
#165=ORIENTED_EDGE('',*,*,#130,.F.);
#166=ORIENTED_EDGE('',*,*,#131,.F.);
#167=ORIENTED_EDGE('',*,*,#132,.F.);
#168=ORIENTED_EDGE('',*,*,#133,.F.);
#169=ORIENTED_EDGE('',*,*,#134,.T.);
#170=ORIENTED_EDGE('',*,*,#135,.T.);
#171=ORIENTED_EDGE('',*,*,#134,.F.);
#172=ORIENTED_EDGE('',*,*,#135,.F.);
#173=ORIENTED_EDGE('',*,*,#136,.T.);
#174=ORIENTED_EDGE('',*,*,#137,.T.);
#175=ORIENTED_EDGE('',*,*,#138,.T.);
#176=ORIENTED_EDGE('',*,*,#139,.T.);
#177=ORIENTED_EDGE('',*,*,#137,.F.);
#178=ORIENTED_EDGE('',*,*,#139,.F.);
#179=ORIENTED_EDGE('',*,*,#140,.T.);
#180=ORIENTED_EDGE('',*,*,#141,.F.);
#181=ORIENTED_EDGE('',*,*,#142,.F.);
#182=ORIENTED_EDGE('',*,*,#140,.F.);
#183=ORIENTED_EDGE('',*,*,#138,.F.);
#184=ORIENTED_EDGE('',*,*,#136,.F.);
#185=ORIENTED_EDGE('',*,*,#133,.T.);
#186=ORIENTED_EDGE('',*,*,#142,.T.);
#187=ORIENTED_EDGE('',*,*,#143,.T.);
#188=ORIENTED_EDGE('',*,*,#144,.T.);
#189=ORIENTED_EDGE('',*,*,#143,.F.);
#190=ORIENTED_EDGE('',*,*,#141,.T.);
#191=ORIENTED_EDGE('',*,*,#144,.F.);
#192=ORIENTED_EDGE('',*,*,#128,.T.);
#193=ORIENTED_EDGE('',*,*,#145,.F.);
#194=ORIENTED_EDGE('',*,*,#146,.T.);
#195=ORIENTED_EDGE('',*,*,#147,.T.);
#196=ORIENTED_EDGE('',*,*,#148,.T.);
#197=ORIENTED_EDGE('',*,*,#146,.F.);
#198=ORIENTED_EDGE('',*,*,#147,.F.);
#199=ORIENTED_EDGE('',*,*,#148,.F.);
#200=ORIENTED_EDGE('',*,*,#149,.T.);
#201=ORIENTED_EDGE('',*,*,#150,.T.);
#202=ORIENTED_EDGE('',*,*,#151,.T.);
#203=ORIENTED_EDGE('',*,*,#149,.F.);
#204=ORIENTED_EDGE('',*,*,#151,.F.);
#205=ORIENTED_EDGE('',*,*,#152,.T.);
#206=ORIENTED_EDGE('',*,*,#132,.T.);
#207=ORIENTED_EDGE('',*,*,#152,.F.);
#208=ORIENTED_EDGE('',*,*,#150,.F.);
#209=ORIENTED_EDGE('',*,*,#145,.T.);
#210=ORIENTED_EDGE('',*,*,#153,.F.);
#211=ORIENTED_EDGE('',*,*,#154,.T.);
#212=ORIENTED_EDGE('',*,*,#155,.T.);
#213=ORIENTED_EDGE('',*,*,#156,.T.);
#214=ORIENTED_EDGE('',*,*,#154,.F.);
#215=ORIENTED_EDGE('',*,*,#155,.F.);
#216=ORIENTED_EDGE('',*,*,#156,.F.);
#217=ORIENTED_EDGE('',*,*,#157,.T.);
#218=ORIENTED_EDGE('',*,*,#158,.T.);
#219=ORIENTED_EDGE('',*,*,#159,.T.);
#220=ORIENTED_EDGE('',*,*,#157,.F.);
#221=ORIENTED_EDGE('',*,*,#159,.F.);
#222=ORIENTED_EDGE('',*,*,#160,.T.);
#223=ORIENTED_EDGE('',*,*,#131,.T.);
#224=ORIENTED_EDGE('',*,*,#160,.F.);
#225=ORIENTED_EDGE('',*,*,#158,.F.);
#226=ORIENTED_EDGE('',*,*,#153,.T.);
#227=CYLINDRICAL_SURFACE('',#274,7.);
#228=CYLINDRICAL_SURFACE('',#280,7.);
#229=CYLINDRICAL_SURFACE('',#289,9.);
#230=CYLINDRICAL_SURFACE('',#297,0.4);
#231=CYLINDRICAL_SURFACE('',#305,0.4);
#232=CYLINDRICAL_SURFACE('',#307,0.4);
#233=CYLINDRICAL_SURFACE('',#315,0.4);
#234=STYLED_ITEM('',(#506),#243);
#235=STYLED_ITEM('',(#507),#244);
#236=STYLED_ITEM('',(#506),#245);
#237=STYLED_ITEM('',(#506),#247);
#238=STYLED_ITEM('',(#506),#248);
#239=STYLED_ITEM('',(#506),#249);
#240=STYLED_ITEM('',(#506),#250);
#241=STYLED_ITEM('',(#506),#251);
#242=STYLED_ITEM('',(#505),#13);
#243=ADVANCED_FACE('',(#28),#227,.F.);
#244=ADVANCED_FACE('',(#29,#18,#19),#22,.T.);
#245=ADVANCED_FACE('',(#30),#228,.F.);
#246=ADVANCED_FACE('',(#31),#23,.T.);
#247=ADVANCED_FACE('',(#32),#14,.T.);
#248=ADVANCED_FACE('',(#33),#229,.T.);
#249=ADVANCED_FACE('',(#34,#20),#24,.T.);
#250=ADVANCED_FACE('',(#35),#15,.T.);
#251=ADVANCED_FACE('',(#36,#21),#25,.F.);
#252=ADVANCED_FACE('',(#37),#230,.T.);
#253=ADVANCED_FACE('',(#38),#16,.T.);
#254=ADVANCED_FACE('',(#39),#231,.T.);
#255=ADVANCED_FACE('',(#40),#26,.T.);
#256=ADVANCED_FACE('',(#41),#232,.T.);
#257=ADVANCED_FACE('',(#42),#17,.T.);
#258=ADVANCED_FACE('',(#43),#233,.T.);
#259=ADVANCED_FACE('',(#44),#27,.T.);
#260=CLOSED_SHELL('',(#243,#244,#245,#246,#247,#248,#249,#250,#251,#252,
#253,#254,#255,#256,#257,#258,#259));
#261=DERIVED_UNIT_ELEMENT(#263,1.);
#262=DERIVED_UNIT_ELEMENT(#490,-3.);
#263=(
MASS_UNIT()
NAMED_UNIT(*)
SI_UNIT(.KILO.,.GRAM.)
);
#264=DERIVED_UNIT((#261,#262));
#265=MEASURE_REPRESENTATION_ITEM('density measure',
POSITIVE_RATIO_MEASURE(7850.),#264);
#266=PROPERTY_DEFINITION_REPRESENTATION(#271,#268);
#267=PROPERTY_DEFINITION_REPRESENTATION(#272,#269);
#268=REPRESENTATION('material name',(#270),#487);
#269=REPRESENTATION('density',(#265),#487);
#270=DESCRIPTIVE_REPRESENTATION_ITEM('Steel','Steel');
#271=PROPERTY_DEFINITION('material property','material name',#497);
#272=PROPERTY_DEFINITION('material property','density of part',#497);
#273=AXIS2_PLACEMENT_3D('',#412,#317,#318);
#274=AXIS2_PLACEMENT_3D('',#413,#319,#320);
#275=AXIS2_PLACEMENT_3D('',#415,#321,#322);
#276=AXIS2_PLACEMENT_3D('',#418,#324,#325);
#277=AXIS2_PLACEMENT_3D('',#419,#326,#327);
#278=AXIS2_PLACEMENT_3D('',#421,#328,#329);
#279=AXIS2_PLACEMENT_3D('',#423,#330,#331);
#280=AXIS2_PLACEMENT_3D('',#424,#332,#333);
#281=AXIS2_PLACEMENT_3D('',#426,#334,#335);
#282=AXIS2_PLACEMENT_3D('',#429,#337,#338);
#283=AXIS2_PLACEMENT_3D('',#430,#339,#340);
#284=AXIS2_PLACEMENT_3D('',#431,#341,#342);
#285=AXIS2_PLACEMENT_3D('',#433,#343,#344);
#286=AXIS2_PLACEMENT_3D('',#435,#345,#346);
#287=AXIS2_PLACEMENT_3D('',#437,#347,#348);
#288=AXIS2_PLACEMENT_3D('',#438,#349,#350);
#289=AXIS2_PLACEMENT_3D('',#439,#351,#352);
#290=AXIS2_PLACEMENT_3D('',#443,#354,#355);
#291=AXIS2_PLACEMENT_3D('',#444,#356,#357);
#292=AXIS2_PLACEMENT_3D('',#445,#358,#359);
#293=AXIS2_PLACEMENT_3D('',#446,#360,#361);
#294=AXIS2_PLACEMENT_3D('',#448,#362,#363);
#295=AXIS2_PLACEMENT_3D('',#449,#364,#365);
#296=AXIS2_PLACEMENT_3D('',#450,#366,#367);
#297=AXIS2_PLACEMENT_3D('',#451,#368,#369);
#298=AXIS2_PLACEMENT_3D('',#453,#370,#371);
#299=AXIS2_PLACEMENT_3D('',#457,#373,#374);
#300=AXIS2_PLACEMENT_3D('',#458,#375,#376);
#301=AXIS2_PLACEMENT_3D('',#459,#377,#378);
#302=AXIS2_PLACEMENT_3D('',#461,#379,#380);
#303=AXIS2_PLACEMENT_3D('',#463,#381,#382);
#304=AXIS2_PLACEMENT_3D('',#464,#383,#384);
#305=AXIS2_PLACEMENT_3D('',#465,#385,#386);
#306=AXIS2_PLACEMENT_3D('',#467,#388,#389);
#307=AXIS2_PLACEMENT_3D('',#468,#390,#391);
#308=AXIS2_PLACEMENT_3D('',#470,#392,#393);
#309=AXIS2_PLACEMENT_3D('',#474,#395,#396);
#310=AXIS2_PLACEMENT_3D('',#475,#397,#398);
#311=AXIS2_PLACEMENT_3D('',#476,#399,#400);
#312=AXIS2_PLACEMENT_3D('',#478,#401,#402);
#313=AXIS2_PLACEMENT_3D('',#480,#403,#404);
#314=AXIS2_PLACEMENT_3D('',#481,#405,#406);
#315=AXIS2_PLACEMENT_3D('',#482,#407,#408);
#316=AXIS2_PLACEMENT_3D('',#484,#410,#411);
#317=DIRECTION('axis',(0.,0.,1.));
#318=DIRECTION('refdir',(1.,0.,0.));
#319=DIRECTION('center_axis',(0.,1.,0.));
#320=DIRECTION('ref_axis',(1.,0.,0.));
#321=DIRECTION('center_axis',(0.,1.,0.));
#322=DIRECTION('ref_axis',(1.,0.,0.));
#323=DIRECTION('',(0.,1.,0.));
#324=DIRECTION('center_axis',(0.,1.,0.));
#325=DIRECTION('ref_axis',(1.,0.,0.));
#326=DIRECTION('center_axis',(0.,-1.,0.));
#327=DIRECTION('ref_axis',(1.,0.,0.));
#328=DIRECTION('center_axis',(0.,-1.,0.));
#329=DIRECTION('ref_axis',(1.,0.,0.));
#330=DIRECTION('center_axis',(0.,-1.,0.));
#331=DIRECTION('ref_axis',(1.,0.,0.));
#332=DIRECTION('center_axis',(0.,-1.,0.));
#333=DIRECTION('ref_axis',(-1.,0.,0.));
#334=DIRECTION('center_axis',(0.,-1.,0.));
#335=DIRECTION('ref_axis',(-1.,0.,0.));
#336=DIRECTION('',(0.,-1.,0.));
#337=DIRECTION('center_axis',(0.,-1.,0.));
#338=DIRECTION('ref_axis',(-1.,0.,0.));
#339=DIRECTION('center_axis',(0.,1.,0.));
#340=DIRECTION('ref_axis',(-1.,0.,0.));
#341=DIRECTION('center_axis',(0.,1.,0.));
#342=DIRECTION('ref_axis',(0.,0.,1.));
#343=DIRECTION('center_axis',(0.,-1.,0.));
#344=DIRECTION('ref_axis',(1.,0.,0.));
#345=DIRECTION('center_axis',(-1.,0.,1.22464679914735E-16));
#346=DIRECTION('ref_axis',(-1.22464679914735E-16,0.,-1.));
#347=DIRECTION('center_axis',(0.,1.,0.));
#348=DIRECTION('ref_axis',(1.,0.,0.));
#349=DIRECTION('center_axis',(0.,1.,0.));
#350=DIRECTION('ref_axis',(1.,0.,0.));
#351=DIRECTION('center_axis',(0.,1.,0.));
#352=DIRECTION('ref_axis',(1.,0.,0.));
#353=DIRECTION('',(0.,-1.,0.));
#354=DIRECTION('center_axis',(0.,-1.,0.));
#355=DIRECTION('ref_axis',(1.,0.,0.));
#356=DIRECTION('center_axis',(0.,-1.,0.));
#357=DIRECTION('ref_axis',(1.,0.,0.));
#358=DIRECTION('center_axis',(0.,1.,0.));
#359=DIRECTION('ref_axis',(1.,0.,0.));
#360=DIRECTION('center_axis',(0.,1.,0.));
#361=DIRECTION('ref_axis',(0.,0.,1.));
#362=DIRECTION('center_axis',(-1.,0.,1.22464679914735E-16));
#363=DIRECTION('ref_axis',(-1.22464679914735E-16,0.,-1.));
#364=DIRECTION('center_axis',(0.,1.,0.));
#365=DIRECTION('ref_axis',(1.,0.,0.));
#366=DIRECTION('center_axis',(0.,1.,0.));
#367=DIRECTION('ref_axis',(1.,0.,0.));
#368=DIRECTION('center_axis',(0.,0.,1.));
#369=DIRECTION('ref_axis',(1.,0.,0.));
#370=DIRECTION('center_axis',(0.,-2.83276944882399E-16,1.));
#371=DIRECTION('ref_axis',(1.,0.,0.));
#372=DIRECTION('',(0.,0.,-1.));
#373=DIRECTION('center_axis',(0.,-2.83276944882399E-16,1.));
#374=DIRECTION('ref_axis',(1.,0.,0.));
#375=DIRECTION('center_axis',(0.,-2.83276944882399E-16,1.));
#376=DIRECTION('ref_axis',(1.,0.,0.));
#377=DIRECTION('center_axis',(-1.,0.,0.));
#378=DIRECTION('ref_axis',(0.,0.,1.));
#379=DIRECTION('center_axis',(1.,0.,0.));
#380=DIRECTION('ref_axis',(0.,0.,1.));
#381=DIRECTION('center_axis',(0.,-1.,0.));
#382=DIRECTION('ref_axis',(1.,0.,0.));
#383=DIRECTION('center_axis',(0.,-1.,0.));
#384=DIRECTION('ref_axis',(1.,0.,0.));
#385=DIRECTION('center_axis',(0.,-1.,0.));
#386=DIRECTION('ref_axis',(1.,0.,0.));
#387=DIRECTION('',(0.,1.,0.));
#388=DIRECTION('center_axis',(0.,-2.83276944882399E-16,1.));
#389=DIRECTION('ref_axis',(1.,0.,0.));
#390=DIRECTION('center_axis',(0.,0.,1.));
#391=DIRECTION('ref_axis',(1.,0.,0.));
#392=DIRECTION('center_axis',(0.,-2.83276944882399E-16,1.));
#393=DIRECTION('ref_axis',(1.,0.,0.));
#394=DIRECTION('',(0.,0.,-1.));
#395=DIRECTION('center_axis',(0.,-2.83276944882399E-16,1.));
#396=DIRECTION('ref_axis',(1.,0.,0.));
#397=DIRECTION('center_axis',(0.,-2.83276944882399E-16,1.));
#398=DIRECTION('ref_axis',(1.,0.,0.));
#399=DIRECTION('center_axis',(-1.,0.,0.));
#400=DIRECTION('ref_axis',(0.,0.,1.));
#401=DIRECTION('center_axis',(1.,0.,0.));
#402=DIRECTION('ref_axis',(0.,0.,1.));
#403=DIRECTION('center_axis',(0.,-1.,0.));
#404=DIRECTION('ref_axis',(1.,0.,0.));
#405=DIRECTION('center_axis',(0.,-1.,0.));
#406=DIRECTION('ref_axis',(1.,0.,0.));
#407=DIRECTION('center_axis',(0.,-1.,0.));
#408=DIRECTION('ref_axis',(1.,0.,0.));
#409=DIRECTION('',(0.,1.,0.));
#410=DIRECTION('center_axis',(0.,-2.83276944882399E-16,1.));
#411=DIRECTION('ref_axis',(1.,0.,0.));
#412=CARTESIAN_POINT('',(0.,0.,0.));
#413=CARTESIAN_POINT('Origin',(0.,0.,0.));
#414=CARTESIAN_POINT('',(-7.,0.,-8.57252759403147E-16));
#415=CARTESIAN_POINT('Origin',(0.,0.,0.));
#416=CARTESIAN_POINT('',(-7.,0.5,-8.57252759403147E-16));
#417=CARTESIAN_POINT('',(-7.,0.,8.57252759403147E-16));
#418=CARTESIAN_POINT('Origin',(0.,0.5,0.));
#419=CARTESIAN_POINT('Origin',(0.,0.5,0.));
#420=CARTESIAN_POINT('',(3.6,0.5,-4.89858719658942E-17));
#421=CARTESIAN_POINT('Origin',(4.,0.5,0.));
#422=CARTESIAN_POINT('',(-4.4,0.5,-4.89858719658941E-17));
#423=CARTESIAN_POINT('Origin',(-4.,0.5,0.));
#424=CARTESIAN_POINT('Origin',(0.,60.,0.));
#425=CARTESIAN_POINT('',(7.,60.,-8.57252759403147E-16));
#426=CARTESIAN_POINT('Origin',(0.,60.,0.));
#427=CARTESIAN_POINT('',(7.,59.5,-8.57252759403147E-16));
#428=CARTESIAN_POINT('',(7.,60.,8.57252759403147E-16));
#429=CARTESIAN_POINT('Origin',(0.,59.5,0.));
#430=CARTESIAN_POINT('Origin',(0.,59.5,0.));
#431=CARTESIAN_POINT('Origin',(0.,59.,0.));
#432=CARTESIAN_POINT('',(-9.79717439317883E-16,60.,-8.));
#433=CARTESIAN_POINT('Origin',(0.,60.,0.));
#434=CARTESIAN_POINT('',(-1.10218211923262E-15,59.,-9.));
#435=CARTESIAN_POINT('Origin',(-9.79717439317883E-16,59.,-8.));
#436=CARTESIAN_POINT('',(-9.,59.,1.10218211923262E-15));
#437=CARTESIAN_POINT('Origin',(0.,59.,0.));
#438=CARTESIAN_POINT('Origin',(0.,59.,0.));
#439=CARTESIAN_POINT('Origin',(0.,0.,0.));
#440=CARTESIAN_POINT('',(-9.,1.,-1.10218211923262E-15));
#441=CARTESIAN_POINT('',(-9.,0.,1.10218211923262E-15));
#442=CARTESIAN_POINT('',(-1.10218211923262E-15,1.,-9.));
#443=CARTESIAN_POINT('Origin',(0.,1.,0.));
#444=CARTESIAN_POINT('Origin',(0.,1.,0.));
#445=CARTESIAN_POINT('Origin',(0.,60.,0.));
#446=CARTESIAN_POINT('Origin',(0.,1.,0.));
#447=CARTESIAN_POINT('',(-9.79717439317883E-16,0.,-8.));
#448=CARTESIAN_POINT('Origin',(-9.79717439317883E-16,1.,-8.));
#449=CARTESIAN_POINT('Origin',(0.,0.,0.));
#450=CARTESIAN_POINT('Origin',(0.,0.,0.));
#451=CARTESIAN_POINT('Origin',(-4.,-9.,1.));
#452=CARTESIAN_POINT('',(-4.4,-9.,3.));
#453=CARTESIAN_POINT('Origin',(-4.,-9.,3.));
#454=CARTESIAN_POINT('',(-4.4,-9.,1.));
#455=CARTESIAN_POINT('',(-4.4,-9.,1.));
#456=CARTESIAN_POINT('',(-4.,-8.6,1.));
#457=CARTESIAN_POINT('Origin',(-4.,-9.,1.));
#458=CARTESIAN_POINT('Origin',(-4.,-9.,1.));
#459=CARTESIAN_POINT('Origin',(-4.,-8.,1.));
#460=CARTESIAN_POINT('',(-4.,-8.,0.4));
#461=CARTESIAN_POINT('Origin',(-4.,-8.,1.));
#462=CARTESIAN_POINT('',(-4.4,-8.,-4.89858719658941E-17));
#463=CARTESIAN_POINT('Origin',(-4.,-8.,0.));
#464=CARTESIAN_POINT('Origin',(-4.,-8.,0.));
#465=CARTESIAN_POINT('Origin',(-4.,0.,0.));
#466=CARTESIAN_POINT('',(-4.4,0.,-4.89858719658941E-17));
#467=CARTESIAN_POINT('Origin',(-4.,-9.,3.));
#468=CARTESIAN_POINT('Origin',(4.,-9.,1.));
#469=CARTESIAN_POINT('',(3.6,-9.,3.));
#470=CARTESIAN_POINT('Origin',(4.,-9.,3.));
#471=CARTESIAN_POINT('',(3.6,-9.,1.));
#472=CARTESIAN_POINT('',(3.6,-9.,1.));
#473=CARTESIAN_POINT('',(4.,-8.6,1.));
#474=CARTESIAN_POINT('Origin',(4.,-9.,1.));
#475=CARTESIAN_POINT('Origin',(4.,-9.,1.));
#476=CARTESIAN_POINT('Origin',(4.,-8.,1.));
#477=CARTESIAN_POINT('',(4.,-8.,0.4));
#478=CARTESIAN_POINT('Origin',(4.,-8.,1.));
#479=CARTESIAN_POINT('',(3.6,-8.,-4.89858719658942E-17));
#480=CARTESIAN_POINT('Origin',(4.,-8.,0.));
#481=CARTESIAN_POINT('Origin',(4.,-8.,0.));
#482=CARTESIAN_POINT('Origin',(4.,0.,0.));
#483=CARTESIAN_POINT('',(3.6,0.,-4.89858719658942E-17));
#484=CARTESIAN_POINT('Origin',(4.,-9.,3.));
#485=UNCERTAINTY_MEASURE_WITH_UNIT(LENGTH_MEASURE(0.01),#489,
'DISTANCE_ACCURACY_VALUE',
'Maximum model space distance between geometric entities at asserted c
onnectivities');
#486=UNCERTAINTY_MEASURE_WITH_UNIT(LENGTH_MEASURE(0.01),#489,
'DISTANCE_ACCURACY_VALUE',
'Maximum model space distance between geometric entities at asserted c
onnectivities');
#487=(
GEOMETRIC_REPRESENTATION_CONTEXT(3)
GLOBAL_UNCERTAINTY_ASSIGNED_CONTEXT((#485))
GLOBAL_UNIT_ASSIGNED_CONTEXT((#489,#491,#492))
REPRESENTATION_CONTEXT('','3D')
);
#488=(
GEOMETRIC_REPRESENTATION_CONTEXT(3)
GLOBAL_UNCERTAINTY_ASSIGNED_CONTEXT((#486))
GLOBAL_UNIT_ASSIGNED_CONTEXT((#489,#491,#492))
REPRESENTATION_CONTEXT('','3D')
);
#489=(
LENGTH_UNIT()
NAMED_UNIT(*)
SI_UNIT(.MILLI.,.METRE.)
);
#490=(
LENGTH_UNIT()
NAMED_UNIT(*)
SI_UNIT($,.METRE.)
);
#491=(
NAMED_UNIT(*)
PLANE_ANGLE_UNIT()
SI_UNIT($,.RADIAN.)
);
#492=(
NAMED_UNIT(*)
SI_UNIT($,.STERADIAN.)
SOLID_ANGLE_UNIT()
);
#493=SHAPE_DEFINITION_REPRESENTATION(#494,#495);
#494=PRODUCT_DEFINITION_SHAPE('',$,#497);
#495=SHAPE_REPRESENTATION('',(#273),#487);
#496=PRODUCT_DEFINITION_CONTEXT('part definition',#501,'design');
#497=PRODUCT_DEFINITION('Supercapacitor-mid-position',
'Supercapacitor-mid-position v1',#498,#496);
#498=PRODUCT_DEFINITION_FORMATION('',$,#503);
#499=PRODUCT_RELATED_PRODUCT_CATEGORY('Supercapacitor-mid-position v1',
'Supercapacitor-mid-position v1',(#503));
#500=APPLICATION_PROTOCOL_DEFINITION('international standard',
'automotive_design',2009,#501);
#501=APPLICATION_CONTEXT(
'Core Data for Automotive Mechanical Design Process');
#502=PRODUCT_CONTEXT('part definition',#501,'mechanical');
#503=PRODUCT('Supercapacitor-mid-position',
'Supercapacitor-mid-position v1',$,(#502));
#504=PRESENTATION_STYLE_ASSIGNMENT((#508));
#505=PRESENTATION_STYLE_ASSIGNMENT((#509));
#506=PRESENTATION_STYLE_ASSIGNMENT((#510));
#507=PRESENTATION_STYLE_ASSIGNMENT((#511));
#508=SURFACE_STYLE_USAGE(.BOTH.,#512);
#509=SURFACE_STYLE_USAGE(.BOTH.,#513);
#510=SURFACE_STYLE_USAGE(.BOTH.,#514);
#511=SURFACE_STYLE_USAGE(.BOTH.,#515);
#512=SURFACE_SIDE_STYLE('',(#516));
#513=SURFACE_SIDE_STYLE('',(#517));
#514=SURFACE_SIDE_STYLE('',(#518));
#515=SURFACE_SIDE_STYLE('',(#519));
#516=SURFACE_STYLE_FILL_AREA(#520);
#517=SURFACE_STYLE_FILL_AREA(#521);
#518=SURFACE_STYLE_FILL_AREA(#522);
#519=SURFACE_STYLE_FILL_AREA(#523);
#520=FILL_AREA_STYLE('Steel - Satin',(#524));
#521=FILL_AREA_STYLE('Lead - Rough',(#525));
#522=FILL_AREA_STYLE('ABS (Blue)',(#526));
#523=FILL_AREA_STYLE('ABS (Blue) (1)',(#527));
#524=FILL_AREA_STYLE_COLOUR('Steel - Satin',#528);
#525=FILL_AREA_STYLE_COLOUR('Lead - Rough',#529);
#526=FILL_AREA_STYLE_COLOUR('ABS (Blue)',#530);
#527=FILL_AREA_STYLE_COLOUR('ABS (Blue) (1)',#531);
#528=COLOUR_RGB('Steel - Satin',0.627450980392157,0.627450980392157,0.627450980392157);
#529=COLOUR_RGB('Lead - Rough',0.815686274509804,0.815686274509804,0.815686274509804);
#530=COLOUR_RGB('ABS (Blue)',0.32156862745098,0.592156862745098,1.);
#531=COLOUR_RGB('ABS (Blue) (1)',0.172549019607843,0.172549019607843,0.172549019607843);
ENDSEC;
END-ISO-10303-21;
