ISO-10303-21;
HEADER;
FILE_DESCRIPTION(('STEP AP214'),'1');
FILE_NAME('D:/Daten/Step/CB/SMD_discrete/tmp0.STP','2011-11-28T07:07:17',(' '),(' '),'Spatial InterOp 3D',' ',' ');
FILE_SCHEMA(('automotive_design'));
ENDSEC;
DATA;
#1=MECHANICAL_DESIGN_GEOMETRIC_PRESENTATION_REPRESENTATION(' ',(#10,#11,#12,#13,#14,#15,#16,#17,#18,#19,#20,#21,#22,#23,#24,#25,#26),#6);
#2=PRODUCT_DEFINITION_CONTEXT('',#27,'design');
#3=APPLICATION_PROTOCOL_DEFINITION('INTERNATIONAL STANDARD','automotive_design',1994,#27);
#4=PRODUCT_CATEGORY_RELATIONSHIP('NONE','NONE',#28,#29);
#5=SHAPE_DEFINITION_REPRESENTATION(#30,#31);
#6= (GEOMETRIC_REPRESENTATION_CONTEXT(3)GLOBAL_UNCERTAINTY_ASSIGNED_CONTEXT((#34))GLOBAL_UNIT_ASSIGNED_CONTEXT((#36,#37,#38))REPRESENTATION_CONTEXT('NONE','WORKSPACE'));
#10=STYLED_ITEM('',(#40),#41);
#11=STYLED_ITEM('',(#42),#43);
#12=STYLED_ITEM('',(#44),#45);
#13=STYLED_ITEM('',(#46),#47);
#14=STYLED_ITEM('',(#48),#49);
#15=STYLED_ITEM('',(#50),#51);
#16=STYLED_ITEM('',(#52),#53);
#17=STYLED_ITEM('',(#54),#55);
#18=STYLED_ITEM('',(#56),#57);
#19=STYLED_ITEM('',(#58),#59);
#20=STYLED_ITEM('',(#60),#61);
#21=STYLED_ITEM('',(#62),#63);
#22=STYLED_ITEM('',(#64),#65);
#23=STYLED_ITEM('',(#66),#67);
#24=STYLED_ITEM('',(#68),#69);
#25=STYLED_ITEM('',(#70),#71);
#26=STYLED_ITEM('',(#72),#73);
#27=APPLICATION_CONTEXT(' ');
#28=PRODUCT_CATEGORY('part','NONE');
#29=PRODUCT_RELATED_PRODUCT_CATEGORY('detail',' ',(#74));
#30=PRODUCT_DEFINITION_SHAPE('NONE','NONE',#75);
#31=ADVANCED_BREP_SHAPE_REPRESENTATION('1',(#61,#76),#6);
#34=UNCERTAINTY_MEASURE_WITH_UNIT(LENGTH_MEASURE(1.0E-006),#36,'','');
#36= (CONVERSION_BASED_UNIT('MILLIMETRE',#79)LENGTH_UNIT()NAMED_UNIT(#82));
#37= (NAMED_UNIT(#84)PLANE_ANGLE_UNIT()SI_UNIT($,.RADIAN.));
#38= (NAMED_UNIT(#84)SOLID_ANGLE_UNIT()SI_UNIT($,.STERADIAN.));
#40=PRESENTATION_STYLE_ASSIGNMENT((#90));
#41=ADVANCED_FACE('',(#91),#92,.T.);
#42=PRESENTATION_STYLE_ASSIGNMENT((#93));
#43=ADVANCED_FACE('',(#94),#95,.T.);
#44=PRESENTATION_STYLE_ASSIGNMENT((#96));
#45=ADVANCED_FACE('',(#97),#98,.F.);
#46=PRESENTATION_STYLE_ASSIGNMENT((#99));
#47=ADVANCED_FACE('',(#100),#101,.F.);
#48=PRESENTATION_STYLE_ASSIGNMENT((#102));
#49=ADVANCED_FACE('',(#103,#104),#105,.T.);
#50=PRESENTATION_STYLE_ASSIGNMENT((#106));
#51=ADVANCED_FACE('',(#107),#108,.T.);
#52=PRESENTATION_STYLE_ASSIGNMENT((#109));
#53=ADVANCED_FACE('',(#110),#111,.F.);
#54=PRESENTATION_STYLE_ASSIGNMENT((#112));
#55=ADVANCED_FACE('',(#113),#114,.T.);
#56=PRESENTATION_STYLE_ASSIGNMENT((#115));
#57=ADVANCED_FACE('',(#116),#117,.F.);
#58=PRESENTATION_STYLE_ASSIGNMENT((#118));
#59=ADVANCED_FACE('',(#119),#120,.T.);
#60=PRESENTATION_STYLE_ASSIGNMENT((#121));
#61=MANIFOLD_SOLID_BREP('1',#122);
#62=PRESENTATION_STYLE_ASSIGNMENT((#123));
#63=ADVANCED_FACE('',(#124),#125,.T.);
#64=PRESENTATION_STYLE_ASSIGNMENT((#126));
#65=ADVANCED_FACE('',(#127),#128,.T.);
#66=PRESENTATION_STYLE_ASSIGNMENT((#129));
#67=ADVANCED_FACE('',(#130),#131,.T.);
#68=PRESENTATION_STYLE_ASSIGNMENT((#132));
#69=ADVANCED_FACE('',(#133,#134),#135,.T.);
#70=PRESENTATION_STYLE_ASSIGNMENT((#136));
#71=ADVANCED_FACE('',(#137),#138,.T.);
#72=PRESENTATION_STYLE_ASSIGNMENT((#139));
#73=ADVANCED_FACE('',(#140),#141,.T.);
#74=PRODUCT('1','1','PART-1-DESC',(#142));
#75=PRODUCT_DEFINITION('NONE','NONE',#143,#2);
#76=AXIS2_PLACEMENT_3D('',#144,#145,#146);
#79=LENGTH_MEASURE_WITH_UNIT(LENGTH_MEASURE(1.0),#147);
#82=DIMENSIONAL_EXPONENTS(1.0,0.0,0.0,0.0,0.0,0.0,0.0);
#84=DIMENSIONAL_EXPONENTS(0.0,0.0,0.0,0.0,0.0,0.0,0.0);
#90=SURFACE_STYLE_USAGE(.BOTH.,#148);
#91=FACE_OUTER_BOUND('',#149,.T.);
#92=PLANE('',#150);
#93=SURFACE_STYLE_USAGE(.BOTH.,#151);
#94=FACE_OUTER_BOUND('',#152,.T.);
#95=PLANE('',#153);
#96=SURFACE_STYLE_USAGE(.BOTH.,#154);
#97=FACE_OUTER_BOUND('',#155,.T.);
#98=PLANE('',#156);
#99=SURFACE_STYLE_USAGE(.BOTH.,#157);
#100=FACE_OUTER_BOUND('',#158,.T.);
#101=PLANE('',#159);
#102=SURFACE_STYLE_USAGE(.BOTH.,#160);
#103=FACE_OUTER_BOUND('',#161,.T.);
#104=FACE_BOUND('',#162,.T.);
#105=PLANE('',#163);
#106=SURFACE_STYLE_USAGE(.BOTH.,#164);
#107=FACE_OUTER_BOUND('',#165,.T.);
#108=PLANE('',#166);
#109=SURFACE_STYLE_USAGE(.BOTH.,#167);
#110=FACE_OUTER_BOUND('',#168,.T.);
#111=PLANE('',#169);
#112=SURFACE_STYLE_USAGE(.BOTH.,#170);
#113=FACE_OUTER_BOUND('',#171,.T.);
#114=PLANE('',#172);
#115=SURFACE_STYLE_USAGE(.BOTH.,#173);
#116=FACE_OUTER_BOUND('',#174,.T.);
#117=PLANE('',#175);
#118=SURFACE_STYLE_USAGE(.BOTH.,#176);
#119=FACE_OUTER_BOUND('',#177,.T.);
#120=PLANE('',#178);
#121=SURFACE_STYLE_USAGE(.BOTH.,#179);
#122=CLOSED_SHELL('',(#69,#55,#65,#43,#45,#63,#49,#41,#51,#67,#47,#73,#71,#59,#57,#53));
#123=SURFACE_STYLE_USAGE(.BOTH.,#180);
#124=FACE_OUTER_BOUND('',#181,.T.);
#125=PLANE('',#182);
#126=SURFACE_STYLE_USAGE(.BOTH.,#183);
#127=FACE_OUTER_BOUND('',#184,.T.);
#128=PLANE('',#185);
#129=SURFACE_STYLE_USAGE(.BOTH.,#186);
#130=FACE_OUTER_BOUND('',#187,.T.);
#131=PLANE('',#188);
#132=SURFACE_STYLE_USAGE(.BOTH.,#189);
#133=FACE_OUTER_BOUND('',#190,.T.);
#134=FACE_BOUND('',#191,.T.);
#135=PLANE('',#192);
#136=SURFACE_STYLE_USAGE(.BOTH.,#193);
#137=FACE_OUTER_BOUND('',#194,.T.);
#138=PLANE('',#195);
#139=SURFACE_STYLE_USAGE(.BOTH.,#196);
#140=FACE_OUTER_BOUND('',#197,.T.);
#141=PLANE('',#198);
#142=PRODUCT_CONTEXT('',#27,'mechanical');
#143=PRODUCT_DEFINITION_FORMATION_WITH_SPECIFIED_SOURCE(' ','NONE',#74,.NOT_KNOWN.);
#144=CARTESIAN_POINT('',(0.0,0.0,0.0));
#145=DIRECTION('',(0.0,0.0,1.0));
#146=DIRECTION('',(1.0,0.0,0.0));
#147= (NAMED_UNIT(#82)LENGTH_UNIT()SI_UNIT(.MILLI.,.METRE.));
#148=SURFACE_SIDE_STYLE('',(#200));
#149=EDGE_LOOP('',(#201,#202,#203,#204));
#150=AXIS2_PLACEMENT_3D('',#205,#206,#207);
#151=SURFACE_SIDE_STYLE('',(#208));
#152=EDGE_LOOP('',(#209,#210,#211,#212));
#153=AXIS2_PLACEMENT_3D('',#213,#214,#215);
#154=SURFACE_SIDE_STYLE('',(#216));
#155=EDGE_LOOP('',(#217,#218,#219,#220));
#156=AXIS2_PLACEMENT_3D('',#221,#222,#223);
#157=SURFACE_SIDE_STYLE('',(#224));
#158=EDGE_LOOP('',(#225,#226,#227,#228));
#159=AXIS2_PLACEMENT_3D('',#229,#230,#231);
#160=SURFACE_SIDE_STYLE('',(#232));
#161=EDGE_LOOP('',(#233,#234,#235,#236));
#162=EDGE_LOOP('',(#237,#238,#239,#240));
#163=AXIS2_PLACEMENT_3D('',#241,#242,#243);
#164=SURFACE_SIDE_STYLE('',(#244));
#165=EDGE_LOOP('',(#245,#246,#247,#248));
#166=AXIS2_PLACEMENT_3D('',#249,#250,#251);
#167=SURFACE_SIDE_STYLE('',(#252));
#168=EDGE_LOOP('',(#253,#254,#255,#256));
#169=AXIS2_PLACEMENT_3D('',#257,#258,#259);
#170=SURFACE_SIDE_STYLE('',(#260));
#171=EDGE_LOOP('',(#261,#262,#263,#264));
#172=AXIS2_PLACEMENT_3D('',#265,#266,#267);
#173=SURFACE_SIDE_STYLE('',(#268));
#174=EDGE_LOOP('',(#269,#270,#271,#272));
#175=AXIS2_PLACEMENT_3D('',#273,#274,#275);
#176=SURFACE_SIDE_STYLE('',(#276));
#177=EDGE_LOOP('',(#277,#278,#279,#280));
#178=AXIS2_PLACEMENT_3D('',#281,#282,#283);
#179=SURFACE_SIDE_STYLE('',(#284));
#180=SURFACE_SIDE_STYLE('',(#285));
#181=EDGE_LOOP('',(#286,#287,#288,#289));
#182=AXIS2_PLACEMENT_3D('',#290,#291,#292);
#183=SURFACE_SIDE_STYLE('',(#293));
#184=EDGE_LOOP('',(#294,#295,#296,#297));
#185=AXIS2_PLACEMENT_3D('',#298,#299,#300);
#186=SURFACE_SIDE_STYLE('',(#301));
#187=EDGE_LOOP('',(#302,#303,#304,#305));
#188=AXIS2_PLACEMENT_3D('',#306,#307,#308);
#189=SURFACE_SIDE_STYLE('',(#309));
#190=EDGE_LOOP('',(#310,#311,#312,#313));
#191=EDGE_LOOP('',(#314,#315,#316,#317));
#192=AXIS2_PLACEMENT_3D('',#318,#319,#320);
#193=SURFACE_SIDE_STYLE('',(#321));
#194=EDGE_LOOP('',(#322,#323,#324,#325));
#195=AXIS2_PLACEMENT_3D('',#326,#327,#328);
#196=SURFACE_SIDE_STYLE('',(#329));
#197=EDGE_LOOP('',(#330,#331,#332,#333));
#198=AXIS2_PLACEMENT_3D('',#334,#335,#336);
#200=SURFACE_STYLE_FILL_AREA(#337);
#201=ORIENTED_EDGE('',*,*,#338,.T.);
#202=ORIENTED_EDGE('',*,*,#339,.F.);
#203=ORIENTED_EDGE('',*,*,#340,.F.);
#204=ORIENTED_EDGE('',*,*,#341,.T.);
#205=CARTESIAN_POINT('',(-0.5,-0.25,0.600000017881394));
#206=DIRECTION('',(-1.06752213906265E-016,-1.0,-0.0));
#207=DIRECTION('',(-1.0,1.06752213906265E-016,0.0));
#208=SURFACE_STYLE_FILL_AREA(#342);
#209=ORIENTED_EDGE('',*,*,#343,.T.);
#210=ORIENTED_EDGE('',*,*,#344,.F.);
#211=ORIENTED_EDGE('',*,*,#345,.T.);
#212=ORIENTED_EDGE('',*,*,#346,.T.);
#213=CARTESIAN_POINT('',(0.24,0.25,-1.78813931994704E-008));
#214=DIRECTION('',(2.02231220645074E-110,1.0,4.55841406955558E-032));
#215=DIRECTION('',(1.0,0.0,-4.43643814623428E-079));
#216=SURFACE_STYLE_FILL_AREA(#347);
#217=ORIENTED_EDGE('',*,*,#345,.F.);
#218=ORIENTED_EDGE('',*,*,#348,.F.);
#219=ORIENTED_EDGE('',*,*,#349,.T.);
#220=ORIENTED_EDGE('',*,*,#350,.T.);
#221=CARTESIAN_POINT('',(0.24,-0.25,-1.78813931994704E-008));
#222=DIRECTION('',(0.0,0.0,1.0));
#223=DIRECTION('',(1.0,0.0,0.0));
#224=SURFACE_STYLE_FILL_AREA(#351);
#225=ORIENTED_EDGE('',*,*,#352,.T.);
#226=ORIENTED_EDGE('',*,*,#353,.T.);
#227=ORIENTED_EDGE('',*,*,#340,.T.);
#228=ORIENTED_EDGE('',*,*,#354,.T.);
#229=CARTESIAN_POINT('',(-0.5,-0.25,-5.96046484391266E-009));
#230=DIRECTION('',(0.0,0.0,1.0));
#231=DIRECTION('',(1.0,0.0,0.0));
#232=SURFACE_STYLE_FILL_AREA(#355);
#233=ORIENTED_EDGE('',*,*,#356,.F.);
#234=ORIENTED_EDGE('',*,*,#341,.F.);
#235=ORIENTED_EDGE('',*,*,#353,.F.);
#236=ORIENTED_EDGE('',*,*,#357,.F.);
#237=ORIENTED_EDGE('',*,*,#358,.F.);
#238=ORIENTED_EDGE('',*,*,#359,.T.);
#239=ORIENTED_EDGE('',*,*,#360,.T.);
#240=ORIENTED_EDGE('',*,*,#361,.F.);
#241=CARTESIAN_POINT('',(-0.225,-0.25,0.600000017881394));
#242=DIRECTION('',(1.0,-6.12303176911189E-017,2.29561756065156E-049));
#243=DIRECTION('',(0.0,3.74915180455535E-033,1.0));
#244=SURFACE_STYLE_FILL_AREA(#362);
#245=ORIENTED_EDGE('',*,*,#363,.T.);
#246=ORIENTED_EDGE('',*,*,#364,.F.);
#247=ORIENTED_EDGE('',*,*,#354,.F.);
#248=ORIENTED_EDGE('',*,*,#339,.T.);
#249=CARTESIAN_POINT('',(-0.5,-0.25,-5.96046484391266E-009));
#250=DIRECTION('',(-1.0,0.0,0.0));
#251=DIRECTION('',(0.0,0.0,1.0));
#252=SURFACE_STYLE_FILL_AREA(#365);
#253=ORIENTED_EDGE('',*,*,#366,.T.);
#254=ORIENTED_EDGE('',*,*,#367,.T.);
#255=ORIENTED_EDGE('',*,*,#359,.F.);
#256=ORIENTED_EDGE('',*,*,#368,.F.);
#257=CARTESIAN_POINT('',(-4.9960036108132E-016,0.225,0.437499994039535));
#258=DIRECTION('',(0.0,-1.0,0.0));
#259=DIRECTION('',(0.0,0.0,-1.0));
#260=SURFACE_STYLE_FILL_AREA(#369);
#261=ORIENTED_EDGE('',*,*,#370,.T.);
#262=ORIENTED_EDGE('',*,*,#371,.F.);
#263=ORIENTED_EDGE('',*,*,#348,.T.);
#264=ORIENTED_EDGE('',*,*,#344,.T.);
#265=CARTESIAN_POINT('',(0.5,-0.25,0.600000005960464));
#266=DIRECTION('',(1.0,0.0,0.0));
#267=DIRECTION('',(0.0,1.0,0.0));
#268=SURFACE_STYLE_FILL_AREA(#372);
#269=ORIENTED_EDGE('',*,*,#361,.T.);
#270=ORIENTED_EDGE('',*,*,#373,.T.);
#271=ORIENTED_EDGE('',*,*,#374,.F.);
#272=ORIENTED_EDGE('',*,*,#375,.F.);
#273=CARTESIAN_POINT('',(-4.9960036108132E-016,-0.225,0.437499994039535));
#274=DIRECTION('',(-0.0,1.0,0.0));
#275=DIRECTION('',(1.0,0.0,0.0));
#276=SURFACE_STYLE_FILL_AREA(#376);
#277=ORIENTED_EDGE('',*,*,#377,.T.);
#278=ORIENTED_EDGE('',*,*,#368,.T.);
#279=ORIENTED_EDGE('',*,*,#358,.T.);
#280=ORIENTED_EDGE('',*,*,#375,.T.);
#281=CARTESIAN_POINT('',(-4.9960036108132E-016,-2.77555756156289E-017,0.574999994039535));
#282=DIRECTION('',(0.0,0.0,1.0));
#283=DIRECTION('',(1.0,0.0,0.0));
#284=SURFACE_STYLE_FILL_AREA(#378);
#285=SURFACE_STYLE_FILL_AREA(#379);
#286=ORIENTED_EDGE('',*,*,#370,.F.);
#287=ORIENTED_EDGE('',*,*,#343,.F.);
#288=ORIENTED_EDGE('',*,*,#380,.T.);
#289=ORIENTED_EDGE('',*,*,#381,.F.);
#290=CARTESIAN_POINT('',(0.24,-0.25,0.600000005960464));
#291=DIRECTION('',(0.0,0.0,1.0));
#292=DIRECTION('',(1.0,0.0,0.0));
#293=SURFACE_STYLE_FILL_AREA(#382);
#294=ORIENTED_EDGE('',*,*,#381,.T.);
#295=ORIENTED_EDGE('',*,*,#383,.T.);
#296=ORIENTED_EDGE('',*,*,#349,.F.);
#297=ORIENTED_EDGE('',*,*,#371,.T.);
#298=CARTESIAN_POINT('',(0.24,-0.25,0.600000005960464));
#299=DIRECTION('',(-2.1350442781253E-016,-1.0,-0.0));
#300=DIRECTION('',(-1.0,2.1350442781253E-016,0.0));
#301=SURFACE_STYLE_FILL_AREA(#384);
#302=ORIENTED_EDGE('',*,*,#385,.T.);
#303=ORIENTED_EDGE('',*,*,#357,.T.);
#304=ORIENTED_EDGE('',*,*,#352,.F.);
#305=ORIENTED_EDGE('',*,*,#364,.T.);
#306=CARTESIAN_POINT('',(-0.5,0.25,-5.96046484391266E-009));
#307=DIRECTION('',(2.02231220645074E-110,1.0,4.55841406955558E-032));
#308=DIRECTION('',(1.0,0.0,-4.43643814623428E-079));
#309=SURFACE_STYLE_FILL_AREA(#386);
#310=ORIENTED_EDGE('',*,*,#346,.F.);
#311=ORIENTED_EDGE('',*,*,#350,.F.);
#312=ORIENTED_EDGE('',*,*,#383,.F.);
#313=ORIENTED_EDGE('',*,*,#380,.F.);
#314=ORIENTED_EDGE('',*,*,#377,.F.);
#315=ORIENTED_EDGE('',*,*,#374,.T.);
#316=ORIENTED_EDGE('',*,*,#387,.T.);
#317=ORIENTED_EDGE('',*,*,#366,.F.);
#318=CARTESIAN_POINT('',(0.225,0.25,-1.78813931994704E-008));
#319=DIRECTION('',(-1.0,0.0,6.12303176911189E-017));
#320=DIRECTION('',(0.0,1.0,0.0));
#321=SURFACE_STYLE_FILL_AREA(#388);
#322=ORIENTED_EDGE('',*,*,#373,.F.);
#323=ORIENTED_EDGE('',*,*,#360,.F.);
#324=ORIENTED_EDGE('',*,*,#367,.F.);
#325=ORIENTED_EDGE('',*,*,#387,.F.);
#326=CARTESIAN_POINT('',(-0.225,-0.225,0.0249999940395355));
#327=DIRECTION('',(0.0,-1.22460635382238E-016,-1.0));
#328=DIRECTION('',(0.0,-1.0,1.22460635382238E-016));
#329=SURFACE_STYLE_FILL_AREA(#389);
#330=ORIENTED_EDGE('',*,*,#338,.F.);
#331=ORIENTED_EDGE('',*,*,#356,.T.);
#332=ORIENTED_EDGE('',*,*,#385,.F.);
#333=ORIENTED_EDGE('',*,*,#363,.F.);
#334=CARTESIAN_POINT('',(-0.5,-0.25,0.600000017881394));
#335=DIRECTION('',(0.0,0.0,1.0));
#336=DIRECTION('',(1.0,0.0,0.0));
#337=FILL_AREA_STYLE('',(#390));
#338=EDGE_CURVE('',#391,#392,#393,.T.);
#339=EDGE_CURVE('',#394,#392,#395,.T.);
#340=EDGE_CURVE('',#396,#394,#397,.T.);
#341=EDGE_CURVE('',#396,#391,#398,.T.);
#342=FILL_AREA_STYLE('',(#399));
#343=EDGE_CURVE('',#400,#401,#402,.T.);
#344=EDGE_CURVE('',#403,#401,#404,.T.);
#345=EDGE_CURVE('',#403,#405,#406,.T.);
#346=EDGE_CURVE('',#405,#400,#407,.T.);
#347=FILL_AREA_STYLE('',(#408));
#348=EDGE_CURVE('',#409,#403,#410,.T.);
#349=EDGE_CURVE('',#409,#411,#412,.T.);
#350=EDGE_CURVE('',#411,#405,#413,.T.);
#351=FILL_AREA_STYLE('',(#414));
#352=EDGE_CURVE('',#415,#416,#417,.T.);
#353=EDGE_CURVE('',#416,#396,#418,.T.);
#354=EDGE_CURVE('',#394,#415,#419,.T.);
#355=FILL_AREA_STYLE('',(#420));
#356=EDGE_CURVE('',#391,#421,#422,.T.);
#357=EDGE_CURVE('',#421,#416,#423,.T.);
#358=EDGE_CURVE('',#424,#425,#426,.T.);
#359=EDGE_CURVE('',#424,#427,#428,.T.);
#360=EDGE_CURVE('',#427,#429,#430,.T.);
#361=EDGE_CURVE('',#425,#429,#431,.T.);
#362=FILL_AREA_STYLE('',(#432));
#363=EDGE_CURVE('',#392,#433,#434,.T.);
#364=EDGE_CURVE('',#415,#433,#435,.T.);
#365=FILL_AREA_STYLE('',(#436));
#366=EDGE_CURVE('',#437,#438,#439,.T.);
#367=EDGE_CURVE('',#438,#427,#440,.T.);
#368=EDGE_CURVE('',#437,#424,#441,.T.);
#369=FILL_AREA_STYLE('',(#442));
#370=EDGE_CURVE('',#401,#443,#444,.T.);
#371=EDGE_CURVE('',#409,#443,#445,.T.);
#372=FILL_AREA_STYLE('',(#446));
#373=EDGE_CURVE('',#429,#447,#448,.T.);
#374=EDGE_CURVE('',#449,#447,#450,.T.);
#375=EDGE_CURVE('',#425,#449,#451,.T.);
#376=FILL_AREA_STYLE('',(#452));
#377=EDGE_CURVE('',#449,#437,#453,.T.);
#378=FILL_AREA_STYLE('',(#454));
#379=FILL_AREA_STYLE('',(#455));
#380=EDGE_CURVE('',#400,#456,#457,.T.);
#381=EDGE_CURVE('',#443,#456,#458,.T.);
#382=FILL_AREA_STYLE('',(#459));
#383=EDGE_CURVE('',#456,#411,#460,.T.);
#384=FILL_AREA_STYLE('',(#461));
#385=EDGE_CURVE('',#433,#421,#462,.T.);
#386=FILL_AREA_STYLE('',(#463));
#387=EDGE_CURVE('',#447,#438,#464,.T.);
#388=FILL_AREA_STYLE('',(#465));
#389=FILL_AREA_STYLE('',(#466));
#390=FILL_AREA_STYLE_COLOUR('',#467);
#391=VERTEX_POINT('',#468);
#392=VERTEX_POINT('',#469);
#393=LINE('',#470,#471);
#394=VERTEX_POINT('',#472);
#395=LINE('',#473,#474);
#396=VERTEX_POINT('',#475);
#397=LINE('',#476,#477);
#398=LINE('',#478,#479);
#399=FILL_AREA_STYLE_COLOUR('',#480);
#400=VERTEX_POINT('',#481);
#401=VERTEX_POINT('',#482);
#402=LINE('',#483,#484);
#403=VERTEX_POINT('',#485);
#404=LINE('',#486,#487);
#405=VERTEX_POINT('',#488);
#406=LINE('',#489,#490);
#407=LINE('',#491,#492);
#408=FILL_AREA_STYLE_COLOUR('',#493);
#409=VERTEX_POINT('',#494);
#410=LINE('',#495,#496);
#411=VERTEX_POINT('',#497);
#412=LINE('',#498,#499);
#413=LINE('',#500,#501);
#414=FILL_AREA_STYLE_COLOUR('',#502);
#415=VERTEX_POINT('',#503);
#416=VERTEX_POINT('',#504);
#417=LINE('',#505,#506);
#418=LINE('',#507,#508);
#419=LINE('',#509,#510);
#420=FILL_AREA_STYLE_COLOUR('',#511);
#421=VERTEX_POINT('',#512);
#422=LINE('',#513,#514);
#423=LINE('',#515,#516);
#424=VERTEX_POINT('',#517);
#425=VERTEX_POINT('',#518);
#426=LINE('',#519,#520);
#427=VERTEX_POINT('',#521);
#428=LINE('',#522,#523);
#429=VERTEX_POINT('',#524);
#430=LINE('',#525,#526);
#431=LINE('',#527,#528);
#432=FILL_AREA_STYLE_COLOUR('',#529);
#433=VERTEX_POINT('',#530);
#434=LINE('',#531,#532);
#435=LINE('',#533,#534);
#436=FILL_AREA_STYLE_COLOUR('',#535);
#437=VERTEX_POINT('',#536);
#438=VERTEX_POINT('',#537);
#439=LINE('',#538,#539);
#440=LINE('',#540,#541);
#441=LINE('',#542,#543);
#442=FILL_AREA_STYLE_COLOUR('',#544);
#443=VERTEX_POINT('',#545);
#444=LINE('',#546,#547);
#445=LINE('',#548,#549);
#446=FILL_AREA_STYLE_COLOUR('',#550);
#447=VERTEX_POINT('',#551);
#448=LINE('',#552,#553);
#449=VERTEX_POINT('',#554);
#450=LINE('',#555,#556);
#451=LINE('',#557,#558);
#452=FILL_AREA_STYLE_COLOUR('',#559);
#453=LINE('',#560,#561);
#454=FILL_AREA_STYLE_COLOUR('',#562);
#455=FILL_AREA_STYLE_COLOUR('',#563);
#456=VERTEX_POINT('',#564);
#457=LINE('',#565,#566);
#458=LINE('',#567,#568);
#459=FILL_AREA_STYLE_COLOUR('',#569);
#460=LINE('',#570,#571);
#461=FILL_AREA_STYLE_COLOUR('',#572);
#462=LINE('',#573,#574);
#463=FILL_AREA_STYLE_COLOUR('',#575);
#464=LINE('',#576,#577);
#465=FILL_AREA_STYLE_COLOUR('',#578);
#466=FILL_AREA_STYLE_COLOUR('',#579);
#467=COLOUR_RGB('',0.937254905700684,0.909803926944733,0.937254905700684);
#468=CARTESIAN_POINT('',(-0.225,-0.25,0.600000017881394));
#469=CARTESIAN_POINT('',(-0.5,-0.25,0.600000017881394));
#470=CARTESIAN_POINT('',(-0.24,-0.25,0.600000017881394));
#471=VECTOR('',#580,1.04);
#472=CARTESIAN_POINT('',(-0.5,-0.25,-5.96046484391266E-009));
#473=CARTESIAN_POINT('',(-0.5,-0.25,-5.96046484391266E-009));
#474=VECTOR('',#581,0.005);
#475=CARTESIAN_POINT('',(-0.225,-0.25,-5.96046484391266E-009));
#476=CARTESIAN_POINT('',(-0.24,-0.25,-5.96046484391266E-009));
#477=VECTOR('',#582,1.04);
#478=CARTESIAN_POINT('',(-0.225,-0.25,0.600000017881394));
#479=VECTOR('',#583,1.0);
#480=COLOUR_RGB('',0.937254905700684,0.909803926944733,0.937254905700684);
#481=CARTESIAN_POINT('',(0.225,0.25,0.600000005960464));
#482=CARTESIAN_POINT('',(0.5,0.25,0.600000005960464));
#483=CARTESIAN_POINT('',(0.5,0.25,0.600000005960464));
#484=VECTOR('',#584,1.04);
#485=CARTESIAN_POINT('',(0.5,0.25,-1.78813931994704E-008));
#486=CARTESIAN_POINT('',(0.5,0.25,-1.78813931994704E-008));
#487=VECTOR('',#585,0.005);
#488=CARTESIAN_POINT('',(0.225,0.25,-1.78813931994704E-008));
#489=CARTESIAN_POINT('',(0.5,0.25,-1.78813931994704E-008));
#490=VECTOR('',#586,1.04);
#491=CARTESIAN_POINT('',(0.225,0.25,0.600000005960464));
#492=VECTOR('',#587,1.0);
#493=COLOUR_RGB('',0.937254905700684,0.909803926944733,0.937254905700684);
#494=CARTESIAN_POINT('',(0.5,-0.25,-1.78813931994704E-008));
#495=CARTESIAN_POINT('',(0.5,-0.25,-1.78813931994704E-008));
#496=VECTOR('',#588,1.0);
#497=CARTESIAN_POINT('',(0.225,-0.25,-1.78813931994704E-008));
#498=CARTESIAN_POINT('',(0.24,-0.25,-1.78813931994704E-008));
#499=VECTOR('',#589,1.0);
#500=CARTESIAN_POINT('',(0.225,0.25,-1.78813931994704E-008));
#501=VECTOR('',#590,1.0);
#502=COLOUR_RGB('',0.937254905700684,0.909803926944733,0.937254905700684);
#503=CARTESIAN_POINT('',(-0.5,0.25,-5.96046484391266E-009));
#504=CARTESIAN_POINT('',(-0.225,0.25,-5.96046484391266E-009));
#505=CARTESIAN_POINT('',(-0.5,0.25,-5.96046484391266E-009));
#506=VECTOR('',#591,1.04);
#507=CARTESIAN_POINT('',(-0.225,-0.25,-5.96046484391266E-009));
#508=VECTOR('',#592,1.0);
#509=CARTESIAN_POINT('',(-0.5,-0.25,-5.96046484391266E-009));
#510=VECTOR('',#593,1.0);
#511=COLOUR_RGB('',0.937254905700684,0.909803926944733,0.937254905700684);
#512=CARTESIAN_POINT('',(-0.225,0.25,0.600000017881394));
#513=CARTESIAN_POINT('',(-0.225,0.25,0.600000017881394));
#514=VECTOR('',#594,1.0);
#515=CARTESIAN_POINT('',(-0.225,0.25,-5.96046484391266E-009));
#516=VECTOR('',#595,1.0);
#517=CARTESIAN_POINT('',(-0.225000000000001,0.225,0.574999994039535));
#518=CARTESIAN_POINT('',(-0.225000000000001,-0.225,0.574999994039535));
#519=CARTESIAN_POINT('',(-0.225000000000001,-2.77555756156289E-017,0.574999994039535));
#520=VECTOR('',#596,1.0);
#521=CARTESIAN_POINT('',(-0.225,0.225,0.0249999940395355));
#522=CARTESIAN_POINT('',(-0.225,0.225,0.299999994039535));
#523=VECTOR('',#597,1.0);
#524=CARTESIAN_POINT('',(-0.225,-0.225,0.0249999940395355));
#525=CARTESIAN_POINT('',(-0.225,-0.225,0.0249999940395355));
#526=VECTOR('',#598,1.0);
#527=CARTESIAN_POINT('',(-0.225,-0.225,0.299999994039535));
#528=VECTOR('',#599,1.0);
#529=COLOUR_RGB('',0.937254905700684,0.909803926944733,0.937254905700684);
#530=CARTESIAN_POINT('',(-0.5,0.25,0.600000017881394));
#531=CARTESIAN_POINT('',(-0.5,-0.25,0.600000017881394));
#532=VECTOR('',#600,1.0);
#533=CARTESIAN_POINT('',(-0.5,0.25,-5.96046484391266E-009));
#534=VECTOR('',#601,0.005);
#535=COLOUR_RGB('',0.647058844566345,0.164705887436867,0.164705887436867);
#536=CARTESIAN_POINT('',(0.225,0.225,0.574999994039535));
#537=CARTESIAN_POINT('',(0.225000000000001,0.225,0.0249999940395355));
#538=CARTESIAN_POINT('',(0.225000000000001,0.225,0.299999994039535));
#539=VECTOR('',#602,1.0);
#540=CARTESIAN_POINT('',(-0.225,0.225,0.0249999940395355));
#541=VECTOR('',#603,1.0);
#542=CARTESIAN_POINT('',(-4.9960036108132E-016,0.225,0.574999994039535));
#543=VECTOR('',#604,1.0);
#544=COLOUR_RGB('',0.937254905700684,0.909803926944733,0.937254905700684);
#545=CARTESIAN_POINT('',(0.5,-0.25,0.600000005960464));
#546=CARTESIAN_POINT('',(0.5,-0.25,0.600000005960464));
#547=VECTOR('',#605,1.0);
#548=CARTESIAN_POINT('',(0.5,-0.25,-1.78813931994704E-008));
#549=VECTOR('',#606,0.005);
#550=COLOUR_RGB('',0.647058844566345,0.164705887436867,0.164705887436867);
#551=CARTESIAN_POINT('',(0.225000000000001,-0.225,0.0249999940395355));
#552=CARTESIAN_POINT('',(0.225000000000001,-0.225,0.0249999940395355));
#553=VECTOR('',#607,1.0);
#554=CARTESIAN_POINT('',(0.225,-0.225,0.574999994039535));
#555=CARTESIAN_POINT('',(0.225,-0.225,0.437499994039535));
#556=VECTOR('',#608,1.0);
#557=CARTESIAN_POINT('',(-4.9960036108132E-016,-0.225,0.574999994039535));
#558=VECTOR('',#609,1.0);
#559=COLOUR_RGB('',0.647058844566345,0.164705887436867,0.164705887436867);
#560=CARTESIAN_POINT('',(0.225,-2.77555756156289E-017,0.574999994039535));
#561=VECTOR('',#610,1.0);
#562=COLOUR_RGB('',0.647058844566345,0.164705887436867,0.164705887436867);
#563=COLOUR_RGB('',0.937254905700684,0.909803926944733,0.937254905700684);
#564=CARTESIAN_POINT('',(0.225,-0.25,0.600000005960464));
#565=CARTESIAN_POINT('',(0.225,-0.25,0.600000005960464));
#566=VECTOR('',#611,1.0);
#567=CARTESIAN_POINT('',(0.24,-0.25,0.600000005960464));
#568=VECTOR('',#612,1.0);
#569=COLOUR_RGB('',0.937254905700684,0.909803926944733,0.937254905700684);
#570=CARTESIAN_POINT('',(0.225,-0.25,-1.78813931994704E-008));
#571=VECTOR('',#613,1.0);
#572=COLOUR_RGB('',0.937254905700684,0.909803926944733,0.937254905700684);
#573=CARTESIAN_POINT('',(-0.5,0.25,0.600000017881394));
#574=VECTOR('',#614,1.04);
#575=COLOUR_RGB('',0.937254905700684,0.909803926944733,0.937254905700684);
#576=CARTESIAN_POINT('',(0.225000000000001,0.225,0.0249999940395355));
#577=VECTOR('',#615,1.0);
#578=COLOUR_RGB('',0.647058844566345,0.164705887436867,0.164705887436867);
#579=COLOUR_RGB('',0.937254905700684,0.909803926944733,0.937254905700684);
#580=DIRECTION('',(-1.0,3.20256641718795E-016,0.0));
#581=DIRECTION('',(0.0,0.0,1.0));
#582=DIRECTION('',(-1.0,3.20256641718795E-016,0.0));
#583=DIRECTION('',(-6.12303176911189E-017,3.74915180455534E-033,1.0));
#584=DIRECTION('',(1.0,-3.20256641718795E-016,0.0));
#585=DIRECTION('',(0.0,0.0,1.0));
#586=DIRECTION('',(-1.0,3.20256641718795E-016,0.0));
#587=DIRECTION('',(6.12303176911189E-017,0.0,1.0));
#588=DIRECTION('',(0.0,1.0,0.0));
#589=DIRECTION('',(-1.0,0.0,6.12303176911189E-017));
#590=DIRECTION('',(0.0,1.0,0.0));
#591=DIRECTION('',(1.0,0.0,0.0));
#592=DIRECTION('',(-6.12303176911189E-017,-1.0,-0.0));
#593=DIRECTION('',(0.0,1.0,0.0));
#594=DIRECTION('',(6.12303176911189E-017,1.0,0.0));
#595=DIRECTION('',(6.12303176911189E-017,-3.74915180455534E-033,-1.0));
#596=DIRECTION('',(0.0,-1.0,0.0));
#597=DIRECTION('',(0.0,-1.22460635382238E-016,-1.0));
#598=DIRECTION('',(0.0,-1.0,1.22460635382238E-016));
#599=DIRECTION('',(0.0,-1.22460635382238E-016,-1.0));
#600=DIRECTION('',(0.0,1.0,0.0));
#601=DIRECTION('',(0.0,0.0,1.0));
#602=DIRECTION('',(0.0,-1.22460635382238E-016,-1.0));
#603=DIRECTION('',(-1.0,0.0,0.0));
#604=DIRECTION('',(-1.0,0.0,0.0));
#605=DIRECTION('',(0.0,-1.0,0.0));
#606=DIRECTION('',(0.0,0.0,1.0));
#607=DIRECTION('',(1.0,0.0,0.0));
#608=DIRECTION('',(0.0,0.0,-1.0));
#609=DIRECTION('',(1.0,0.0,0.0));
#610=DIRECTION('',(0.0,1.0,0.0));
#611=DIRECTION('',(0.0,-1.0,0.0));
#612=DIRECTION('',(-1.0,0.0,6.12303176911189E-017));
#613=DIRECTION('',(-6.12303176911189E-017,-0.0,-1.0));
#614=DIRECTION('',(1.0,0.0,0.0));
#615=DIRECTION('',(0.0,1.0,-1.22460635382238E-016));
ENDSEC;
END-ISO-10303-21;
