ISO-10303-21;
HEADER;
FILE_DESCRIPTION(('STEP AP214'),'1');
FILE_NAME('D:/Daten/Step/CB/SMD_discrete/tmp0.STP','2011-11-30T14:01:54',(' '),(' '),'Spatial InterOp 3D',' ',' ');
FILE_SCHEMA(('automotive_design'));
ENDSEC;
DATA;
#1=MECHANICAL_DESIGN_GEOMETRIC_PRESENTATION_REPRESENTATION(' ',(#10,#11,#12,#13,#14,#15,#16,#17,#18,#19,#20,#21,#22,#23,#24,#25,#26),#6);
#2=PRODUCT_DEFINITION_CONTEXT('',#27,'design');
#3=APPLICATION_PROTOCOL_DEFINITION('INTERNATIONAL STANDARD','automotive_design',1994,#27);
#4=PRODUCT_CATEGORY_RELATIONSHIP('NONE','NONE',#28,#29);
#5=SHAPE_DEFINITION_REPRESENTATION(#30,#31);
#6= (GEOMETRIC_REPRESENTATION_CONTEXT(3)GLOBAL_UNCERTAINTY_ASSIGNED_CONTEXT((#34))GLOBAL_UNIT_ASSIGNED_CONTEXT((#36,#37,#38))REPRESENTATION_CONTEXT('NONE','WORKSPACE'));
#10=STYLED_ITEM('',(#40),#41);
#11=STYLED_ITEM('',(#42),#43);
#12=STYLED_ITEM('',(#44),#45);
#13=STYLED_ITEM('',(#46),#47);
#14=STYLED_ITEM('',(#48),#49);
#15=STYLED_ITEM('',(#50),#51);
#16=STYLED_ITEM('',(#52),#53);
#17=STYLED_ITEM('',(#54),#55);
#18=STYLED_ITEM('',(#56),#57);
#19=STYLED_ITEM('',(#58),#59);
#20=STYLED_ITEM('',(#60),#61);
#21=STYLED_ITEM('',(#62),#63);
#22=STYLED_ITEM('',(#64),#65);
#23=STYLED_ITEM('',(#66),#67);
#24=STYLED_ITEM('',(#68),#69);
#25=STYLED_ITEM('',(#70),#71);
#26=STYLED_ITEM('',(#72),#73);
#27=APPLICATION_CONTEXT(' ');
#28=PRODUCT_CATEGORY('part','NONE');
#29=PRODUCT_RELATED_PRODUCT_CATEGORY('detail',' ',(#74));
#30=PRODUCT_DEFINITION_SHAPE('NONE','NONE',#75);
#31=ADVANCED_BREP_SHAPE_REPRESENTATION('2',(#45,#76),#6);
#34=UNCERTAINTY_MEASURE_WITH_UNIT(LENGTH_MEASURE(1.0E-006),#36,'','');
#36= (CONVERSION_BASED_UNIT('MILLIMETRE',#79)LENGTH_UNIT()NAMED_UNIT(#82));
#37= (NAMED_UNIT(#84)PLANE_ANGLE_UNIT()SI_UNIT($,.RADIAN.));
#38= (NAMED_UNIT(#84)SOLID_ANGLE_UNIT()SI_UNIT($,.STERADIAN.));
#40=PRESENTATION_STYLE_ASSIGNMENT((#90));
#41=ADVANCED_FACE('',(#91),#92,.T.);
#42=PRESENTATION_STYLE_ASSIGNMENT((#93));
#43=ADVANCED_FACE('',(#94),#95,.F.);
#44=PRESENTATION_STYLE_ASSIGNMENT((#96));
#45=MANIFOLD_SOLID_BREP('2',#97);
#46=PRESENTATION_STYLE_ASSIGNMENT((#98));
#47=ADVANCED_FACE('',(#99),#100,.F.);
#48=PRESENTATION_STYLE_ASSIGNMENT((#101));
#49=ADVANCED_FACE('',(#102),#103,.F.);
#50=PRESENTATION_STYLE_ASSIGNMENT((#104));
#51=ADVANCED_FACE('',(#105),#106,.F.);
#52=PRESENTATION_STYLE_ASSIGNMENT((#107));
#53=ADVANCED_FACE('',(#108),#109,.F.);
#54=PRESENTATION_STYLE_ASSIGNMENT((#110));
#55=ADVANCED_FACE('',(#111),#112,.F.);
#56=PRESENTATION_STYLE_ASSIGNMENT((#113));
#57=ADVANCED_FACE('',(#114),#115,.F.);
#58=PRESENTATION_STYLE_ASSIGNMENT((#116));
#59=ADVANCED_FACE('',(#117),#118,.F.);
#60=PRESENTATION_STYLE_ASSIGNMENT((#119));
#61=ADVANCED_FACE('',(#120),#121,.T.);
#62=PRESENTATION_STYLE_ASSIGNMENT((#122));
#63=ADVANCED_FACE('',(#123),#124,.F.);
#64=PRESENTATION_STYLE_ASSIGNMENT((#125));
#65=ADVANCED_FACE('',(#126,#127),#128,.F.);
#66=PRESENTATION_STYLE_ASSIGNMENT((#129));
#67=ADVANCED_FACE('',(#130),#131,.F.);
#68=PRESENTATION_STYLE_ASSIGNMENT((#132));
#69=ADVANCED_FACE('',(#133,#134),#135,.F.);
#70=PRESENTATION_STYLE_ASSIGNMENT((#136));
#71=ADVANCED_FACE('',(#137),#138,.T.);
#72=PRESENTATION_STYLE_ASSIGNMENT((#139));
#73=ADVANCED_FACE('',(#140),#141,.F.);
#74=PRODUCT('2','2','PART-2-DESC',(#142));
#75=PRODUCT_DEFINITION('NONE','NONE',#143,#2);
#76=AXIS2_PLACEMENT_3D('',#144,#145,#146);
#79=LENGTH_MEASURE_WITH_UNIT(LENGTH_MEASURE(1.0),#147);
#82=DIMENSIONAL_EXPONENTS(1.0,0.0,0.0,0.0,0.0,0.0,0.0);
#84=DIMENSIONAL_EXPONENTS(0.0,0.0,0.0,0.0,0.0,0.0,0.0);
#90=SURFACE_STYLE_USAGE(.BOTH.,#148);
#91=FACE_OUTER_BOUND('',#149,.T.);
#92=PLANE('',#150);
#93=SURFACE_STYLE_USAGE(.BOTH.,#151);
#94=FACE_OUTER_BOUND('',#152,.T.);
#95=PLANE('',#153);
#96=SURFACE_STYLE_USAGE(.BOTH.,#154);
#97=CLOSED_SHELL('',(#61,#43,#49,#51,#41,#73,#63,#53,#47,#69,#71,#55,#57,#65,#67,#59));
#98=SURFACE_STYLE_USAGE(.BOTH.,#155);
#99=FACE_OUTER_BOUND('',#156,.T.);
#100=PLANE('',#157);
#101=SURFACE_STYLE_USAGE(.BOTH.,#158);
#102=FACE_OUTER_BOUND('',#159,.T.);
#103=PLANE('',#160);
#104=SURFACE_STYLE_USAGE(.BOTH.,#161);
#105=FACE_OUTER_BOUND('',#162,.T.);
#106=PLANE('',#163);
#107=SURFACE_STYLE_USAGE(.BOTH.,#164);
#108=FACE_OUTER_BOUND('',#165,.T.);
#109=PLANE('',#166);
#110=SURFACE_STYLE_USAGE(.BOTH.,#167);
#111=FACE_OUTER_BOUND('',#168,.T.);
#112=PLANE('',#169);
#113=SURFACE_STYLE_USAGE(.BOTH.,#170);
#114=FACE_OUTER_BOUND('',#171,.T.);
#115=PLANE('',#172);
#116=SURFACE_STYLE_USAGE(.BOTH.,#173);
#117=FACE_OUTER_BOUND('',#174,.T.);
#118=PLANE('',#175);
#119=SURFACE_STYLE_USAGE(.BOTH.,#176);
#120=FACE_OUTER_BOUND('',#177,.T.);
#121=PLANE('',#178);
#122=SURFACE_STYLE_USAGE(.BOTH.,#179);
#123=FACE_OUTER_BOUND('',#180,.T.);
#124=PLANE('',#181);
#125=SURFACE_STYLE_USAGE(.BOTH.,#182);
#126=FACE_BOUND('',#183,.T.);
#127=FACE_OUTER_BOUND('',#184,.T.);
#128=PLANE('',#185);
#129=SURFACE_STYLE_USAGE(.BOTH.,#186);
#130=FACE_OUTER_BOUND('',#187,.T.);
#131=PLANE('',#188);
#132=SURFACE_STYLE_USAGE(.BOTH.,#189);
#133=FACE_BOUND('',#190,.T.);
#134=FACE_OUTER_BOUND('',#191,.T.);
#135=PLANE('',#192);
#136=SURFACE_STYLE_USAGE(.BOTH.,#193);
#137=FACE_OUTER_BOUND('',#194,.T.);
#138=PLANE('',#195);
#139=SURFACE_STYLE_USAGE(.BOTH.,#196);
#140=FACE_OUTER_BOUND('',#197,.T.);
#141=PLANE('',#198);
#142=PRODUCT_CONTEXT('',#27,'mechanical');
#143=PRODUCT_DEFINITION_FORMATION_WITH_SPECIFIED_SOURCE(' ','NONE',#74,.NOT_KNOWN.);
#144=CARTESIAN_POINT('',(0.0,0.0,0.0));
#145=DIRECTION('',(0.0,0.0,1.0));
#146=DIRECTION('',(1.0,0.0,0.0));
#147= (NAMED_UNIT(#82)LENGTH_UNIT()SI_UNIT(.MILLI.,.METRE.));
#148=SURFACE_SIDE_STYLE('',(#200));
#149=EDGE_LOOP('',(#201,#202,#203,#204));
#150=AXIS2_PLACEMENT_3D('',#205,#206,#207);
#151=SURFACE_SIDE_STYLE('',(#208));
#152=EDGE_LOOP('',(#209,#210,#211,#212));
#153=AXIS2_PLACEMENT_3D('',#213,#214,#215);
#154=SURFACE_SIDE_STYLE('',(#216));
#155=SURFACE_SIDE_STYLE('',(#217));
#156=EDGE_LOOP('',(#218,#219,#220,#221));
#157=AXIS2_PLACEMENT_3D('',#222,#223,#224);
#158=SURFACE_SIDE_STYLE('',(#225));
#159=EDGE_LOOP('',(#226,#227,#228,#229));
#160=AXIS2_PLACEMENT_3D('',#230,#231,#232);
#161=SURFACE_SIDE_STYLE('',(#233));
#162=EDGE_LOOP('',(#234,#235,#236,#237));
#163=AXIS2_PLACEMENT_3D('',#238,#239,#240);
#164=SURFACE_SIDE_STYLE('',(#241));
#165=EDGE_LOOP('',(#242,#243,#244,#245));
#166=AXIS2_PLACEMENT_3D('',#246,#247,#248);
#167=SURFACE_SIDE_STYLE('',(#249));
#168=EDGE_LOOP('',(#250,#251,#252,#253));
#169=AXIS2_PLACEMENT_3D('',#254,#255,#256);
#170=SURFACE_SIDE_STYLE('',(#257));
#171=EDGE_LOOP('',(#258,#259,#260,#261));
#172=AXIS2_PLACEMENT_3D('',#262,#263,#264);
#173=SURFACE_SIDE_STYLE('',(#265));
#174=EDGE_LOOP('',(#266,#267,#268,#269));
#175=AXIS2_PLACEMENT_3D('',#270,#271,#272);
#176=SURFACE_SIDE_STYLE('',(#273));
#177=EDGE_LOOP('',(#274,#275,#276,#277));
#178=AXIS2_PLACEMENT_3D('',#278,#279,#280);
#179=SURFACE_SIDE_STYLE('',(#281));
#180=EDGE_LOOP('',(#282,#283,#284,#285));
#181=AXIS2_PLACEMENT_3D('',#286,#287,#288);
#182=SURFACE_SIDE_STYLE('',(#289));
#183=EDGE_LOOP('',(#290,#291,#292,#293));
#184=EDGE_LOOP('',(#294,#295,#296,#297));
#185=AXIS2_PLACEMENT_3D('',#298,#299,#300);
#186=SURFACE_SIDE_STYLE('',(#301));
#187=EDGE_LOOP('',(#302,#303,#304,#305));
#188=AXIS2_PLACEMENT_3D('',#306,#307,#308);
#189=SURFACE_SIDE_STYLE('',(#309));
#190=EDGE_LOOP('',(#310,#311,#312,#313));
#191=EDGE_LOOP('',(#314,#315,#316,#317));
#192=AXIS2_PLACEMENT_3D('',#318,#319,#320);
#193=SURFACE_SIDE_STYLE('',(#321));
#194=EDGE_LOOP('',(#322,#323,#324,#325));
#195=AXIS2_PLACEMENT_3D('',#326,#327,#328);
#196=SURFACE_SIDE_STYLE('',(#329));
#197=EDGE_LOOP('',(#330,#331,#332,#333));
#198=AXIS2_PLACEMENT_3D('',#334,#335,#336);
#200=SURFACE_STYLE_FILL_AREA(#337);
#201=ORIENTED_EDGE('',*,*,#338,.T.);
#202=ORIENTED_EDGE('',*,*,#339,.T.);
#203=ORIENTED_EDGE('',*,*,#340,.T.);
#204=ORIENTED_EDGE('',*,*,#341,.T.);
#205=CARTESIAN_POINT('',(-0.3625,0.0,0.400000004470348));
#206=DIRECTION('',(0.0,0.0,1.0));
#207=DIRECTION('',(1.0,0.0,0.0));
#208=SURFACE_STYLE_FILL_AREA(#342);
#209=ORIENTED_EDGE('',*,*,#343,.F.);
#210=ORIENTED_EDGE('',*,*,#344,.T.);
#211=ORIENTED_EDGE('',*,*,#345,.F.);
#212=ORIENTED_EDGE('',*,*,#346,.T.);
#213=CARTESIAN_POINT('',(0.0,0.0,0.0250000074505804));
#214=DIRECTION('',(0.0,0.0,1.0));
#215=DIRECTION('',(1.0,0.0,0.0));
#216=SURFACE_STYLE_FILL_AREA(#347);
#217=SURFACE_STYLE_FILL_AREA(#348);
#218=ORIENTED_EDGE('',*,*,#349,.T.);
#219=ORIENTED_EDGE('',*,*,#350,.F.);
#220=ORIENTED_EDGE('',*,*,#351,.F.);
#221=ORIENTED_EDGE('',*,*,#339,.F.);
#222=CARTESIAN_POINT('',(-0.3625,0.25,0.200000004470348));
#223=DIRECTION('',(0.0,-1.0,0.0));
#224=DIRECTION('',(0.0,0.0,-1.0));
#225=SURFACE_STYLE_FILL_AREA(#352);
#226=ORIENTED_EDGE('',*,*,#353,.F.);
#227=ORIENTED_EDGE('',*,*,#344,.F.);
#228=ORIENTED_EDGE('',*,*,#354,.F.);
#229=ORIENTED_EDGE('',*,*,#355,.F.);
#230=CARTESIAN_POINT('',(0.0,-0.225,0.20000000745058));
#231=DIRECTION('',(-0.0,1.0,0.0));
#232=DIRECTION('',(1.0,0.0,0.0));
#233=SURFACE_STYLE_FILL_AREA(#356);
#234=ORIENTED_EDGE('',*,*,#357,.F.);
#235=ORIENTED_EDGE('',*,*,#346,.F.);
#236=ORIENTED_EDGE('',*,*,#358,.F.);
#237=ORIENTED_EDGE('',*,*,#359,.F.);
#238=CARTESIAN_POINT('',(0.0,0.225,0.20000000745058));
#239=DIRECTION('',(0.0,-1.0,0.0));
#240=DIRECTION('',(0.0,0.0,-1.0));
#241=SURFACE_STYLE_FILL_AREA(#360);
#242=ORIENTED_EDGE('',*,*,#351,.T.);
#243=ORIENTED_EDGE('',*,*,#361,.F.);
#244=ORIENTED_EDGE('',*,*,#362,.F.);
#245=ORIENTED_EDGE('',*,*,#340,.F.);
#246=CARTESIAN_POINT('',(-0.5,0.0,0.200000004470348));
#247=DIRECTION('',(1.0,0.0,0.0));
#248=DIRECTION('',(0.0,1.0,0.0));
#249=SURFACE_STYLE_FILL_AREA(#363);
#250=ORIENTED_EDGE('',*,*,#364,.T.);
#251=ORIENTED_EDGE('',*,*,#365,.T.);
#252=ORIENTED_EDGE('',*,*,#366,.T.);
#253=ORIENTED_EDGE('',*,*,#367,.T.);
#254=CARTESIAN_POINT('',(0.3625,0.0,1.49011614158923E-009));
#255=DIRECTION('',(0.0,0.0,1.0));
#256=DIRECTION('',(1.0,0.0,0.0));
#257=SURFACE_STYLE_FILL_AREA(#368);
#258=ORIENTED_EDGE('',*,*,#369,.T.);
#259=ORIENTED_EDGE('',*,*,#365,.F.);
#260=ORIENTED_EDGE('',*,*,#370,.F.);
#261=ORIENTED_EDGE('',*,*,#371,.F.);
#262=CARTESIAN_POINT('',(0.3625,-0.25,0.199999998509884));
#263=DIRECTION('',(-0.0,1.0,0.0));
#264=DIRECTION('',(1.0,0.0,0.0));
#265=SURFACE_STYLE_FILL_AREA(#372);
#266=ORIENTED_EDGE('',*,*,#370,.T.);
#267=ORIENTED_EDGE('',*,*,#364,.F.);
#268=ORIENTED_EDGE('',*,*,#373,.F.);
#269=ORIENTED_EDGE('',*,*,#374,.F.);
#270=CARTESIAN_POINT('',(0.5,0.0,0.199999998509884));
#271=DIRECTION('',(-1.0,0.0,0.0));
#272=DIRECTION('',(0.0,0.0,1.0));
#273=SURFACE_STYLE_FILL_AREA(#375);
#274=ORIENTED_EDGE('',*,*,#376,.F.);
#275=ORIENTED_EDGE('',*,*,#359,.T.);
#276=ORIENTED_EDGE('',*,*,#377,.F.);
#277=ORIENTED_EDGE('',*,*,#355,.T.);
#278=CARTESIAN_POINT('',(0.0,0.0,0.37500000745058));
#279=DIRECTION('',(0.0,0.0,1.0));
#280=DIRECTION('',(1.0,0.0,0.0));
#281=SURFACE_STYLE_FILL_AREA(#378);
#282=ORIENTED_EDGE('',*,*,#362,.T.);
#283=ORIENTED_EDGE('',*,*,#379,.F.);
#284=ORIENTED_EDGE('',*,*,#380,.F.);
#285=ORIENTED_EDGE('',*,*,#341,.F.);
#286=CARTESIAN_POINT('',(-0.3625,-0.25,0.200000004470348));
#287=DIRECTION('',(-0.0,1.0,0.0));
#288=DIRECTION('',(1.0,0.0,0.0));
#289=SURFACE_STYLE_FILL_AREA(#381);
#290=ORIENTED_EDGE('',*,*,#343,.T.);
#291=ORIENTED_EDGE('',*,*,#357,.T.);
#292=ORIENTED_EDGE('',*,*,#376,.T.);
#293=ORIENTED_EDGE('',*,*,#354,.T.);
#294=ORIENTED_EDGE('',*,*,#382,.T.);
#295=ORIENTED_EDGE('',*,*,#366,.F.);
#296=ORIENTED_EDGE('',*,*,#369,.F.);
#297=ORIENTED_EDGE('',*,*,#383,.F.);
#298=CARTESIAN_POINT('',(0.225,0.0,0.199999998509884));
#299=DIRECTION('',(1.0,0.0,0.0));
#300=DIRECTION('',(0.0,1.0,0.0));
#301=SURFACE_STYLE_FILL_AREA(#384);
#302=ORIENTED_EDGE('',*,*,#373,.T.);
#303=ORIENTED_EDGE('',*,*,#367,.F.);
#304=ORIENTED_EDGE('',*,*,#382,.F.);
#305=ORIENTED_EDGE('',*,*,#385,.F.);
#306=CARTESIAN_POINT('',(0.3625,0.25,0.199999998509884));
#307=DIRECTION('',(0.0,-1.0,0.0));
#308=DIRECTION('',(0.0,0.0,-1.0));
#309=SURFACE_STYLE_FILL_AREA(#386);
#310=ORIENTED_EDGE('',*,*,#345,.T.);
#311=ORIENTED_EDGE('',*,*,#353,.T.);
#312=ORIENTED_EDGE('',*,*,#377,.T.);
#313=ORIENTED_EDGE('',*,*,#358,.T.);
#314=ORIENTED_EDGE('',*,*,#380,.T.);
#315=ORIENTED_EDGE('',*,*,#387,.F.);
#316=ORIENTED_EDGE('',*,*,#349,.F.);
#317=ORIENTED_EDGE('',*,*,#338,.F.);
#318=CARTESIAN_POINT('',(-0.225,0.0,0.200000004470348));
#319=DIRECTION('',(-1.0,0.0,0.0));
#320=DIRECTION('',(0.0,0.0,1.0));
#321=SURFACE_STYLE_FILL_AREA(#388);
#322=ORIENTED_EDGE('',*,*,#374,.T.);
#323=ORIENTED_EDGE('',*,*,#385,.T.);
#324=ORIENTED_EDGE('',*,*,#383,.T.);
#325=ORIENTED_EDGE('',*,*,#371,.T.);
#326=CARTESIAN_POINT('',(0.3625,0.0,0.399999995529652));
#327=DIRECTION('',(0.0,0.0,1.0));
#328=DIRECTION('',(1.0,0.0,0.0));
#329=SURFACE_STYLE_FILL_AREA(#389);
#330=ORIENTED_EDGE('',*,*,#387,.T.);
#331=ORIENTED_EDGE('',*,*,#379,.T.);
#332=ORIENTED_EDGE('',*,*,#361,.T.);
#333=ORIENTED_EDGE('',*,*,#350,.T.);
#334=CARTESIAN_POINT('',(-0.3625,0.0,4.47034820272307E-009));
#335=DIRECTION('',(0.0,0.0,1.0));
#336=DIRECTION('',(1.0,0.0,0.0));
#337=FILL_AREA_STYLE('',(#390));
#338=EDGE_CURVE('',#391,#392,#393,.T.);
#339=EDGE_CURVE('',#392,#394,#395,.T.);
#340=EDGE_CURVE('',#394,#396,#397,.T.);
#341=EDGE_CURVE('',#396,#391,#398,.T.);
#342=FILL_AREA_STYLE('',(#399));
#343=EDGE_CURVE('',#400,#401,#402,.T.);
#344=EDGE_CURVE('',#400,#403,#404,.T.);
#345=EDGE_CURVE('',#405,#403,#406,.T.);
#346=EDGE_CURVE('',#405,#401,#407,.T.);
#347=FILL_AREA_STYLE('',(#408));
#348=FILL_AREA_STYLE('',(#409));
#349=EDGE_CURVE('',#392,#410,#411,.T.);
#350=EDGE_CURVE('',#412,#410,#413,.T.);
#351=EDGE_CURVE('',#394,#412,#414,.T.);
#352=FILL_AREA_STYLE('',(#415));
#353=EDGE_CURVE('',#403,#416,#417,.T.);
#354=EDGE_CURVE('',#418,#400,#419,.T.);
#355=EDGE_CURVE('',#416,#418,#420,.T.);
#356=FILL_AREA_STYLE('',(#421));
#357=EDGE_CURVE('',#401,#422,#423,.T.);
#358=EDGE_CURVE('',#424,#405,#425,.T.);
#359=EDGE_CURVE('',#422,#424,#426,.T.);
#360=FILL_AREA_STYLE('',(#427));
#361=EDGE_CURVE('',#428,#412,#429,.T.);
#362=EDGE_CURVE('',#396,#428,#430,.T.);
#363=FILL_AREA_STYLE('',(#431));
#364=EDGE_CURVE('',#432,#433,#434,.T.);
#365=EDGE_CURVE('',#433,#435,#436,.T.);
#366=EDGE_CURVE('',#435,#437,#438,.T.);
#367=EDGE_CURVE('',#437,#432,#439,.T.);
#368=FILL_AREA_STYLE('',(#440));
#369=EDGE_CURVE('',#441,#435,#442,.T.);
#370=EDGE_CURVE('',#443,#433,#444,.T.);
#371=EDGE_CURVE('',#441,#443,#445,.T.);
#372=FILL_AREA_STYLE('',(#446));
#373=EDGE_CURVE('',#447,#432,#448,.T.);
#374=EDGE_CURVE('',#443,#447,#449,.T.);
#375=FILL_AREA_STYLE('',(#450));
#376=EDGE_CURVE('',#422,#418,#451,.T.);
#377=EDGE_CURVE('',#416,#424,#452,.T.);
#378=FILL_AREA_STYLE('',(#453));
#379=EDGE_CURVE('',#454,#428,#455,.T.);
#380=EDGE_CURVE('',#391,#454,#456,.T.);
#381=FILL_AREA_STYLE('',(#457));
#382=EDGE_CURVE('',#458,#437,#459,.T.);
#383=EDGE_CURVE('',#458,#441,#460,.T.);
#384=FILL_AREA_STYLE('',(#461));
#385=EDGE_CURVE('',#447,#458,#462,.T.);
#386=FILL_AREA_STYLE('',(#463));
#387=EDGE_CURVE('',#410,#454,#464,.T.);
#388=FILL_AREA_STYLE('',(#465));
#389=FILL_AREA_STYLE('',(#466));
#390=FILL_AREA_STYLE_COLOUR('',#467);
#391=VERTEX_POINT('',#468);
#392=VERTEX_POINT('',#469);
#393=LINE('',#470,#471);
#394=VERTEX_POINT('',#472);
#395=LINE('',#473,#474);
#396=VERTEX_POINT('',#475);
#397=LINE('',#476,#477);
#398=LINE('',#478,#479);
#399=FILL_AREA_STYLE_COLOUR('',#480);
#400=VERTEX_POINT('',#481);
#401=VERTEX_POINT('',#482);
#402=LINE('',#483,#484);
#403=VERTEX_POINT('',#485);
#404=LINE('',#486,#487);
#405=VERTEX_POINT('',#488);
#406=LINE('',#489,#490);
#407=LINE('',#491,#492);
#408=FILL_AREA_STYLE_COLOUR('',#493);
#409=FILL_AREA_STYLE_COLOUR('',#494);
#410=VERTEX_POINT('',#495);
#411=LINE('',#496,#497);
#412=VERTEX_POINT('',#498);
#413=LINE('',#499,#500);
#414=LINE('',#501,#502);
#415=FILL_AREA_STYLE_COLOUR('',#503);
#416=VERTEX_POINT('',#504);
#417=LINE('',#505,#506);
#418=VERTEX_POINT('',#507);
#419=LINE('',#508,#509);
#420=LINE('',#510,#511);
#421=FILL_AREA_STYLE_COLOUR('',#512);
#422=VERTEX_POINT('',#513);
#423=LINE('',#514,#515);
#424=VERTEX_POINT('',#516);
#425=LINE('',#517,#518);
#426=LINE('',#519,#520);
#427=FILL_AREA_STYLE_COLOUR('',#521);
#428=VERTEX_POINT('',#522);
#429=LINE('',#523,#524);
#430=LINE('',#525,#526);
#431=FILL_AREA_STYLE_COLOUR('',#527);
#432=VERTEX_POINT('',#528);
#433=VERTEX_POINT('',#529);
#434=LINE('',#530,#531);
#435=VERTEX_POINT('',#532);
#436=LINE('',#533,#534);
#437=VERTEX_POINT('',#535);
#438=LINE('',#536,#537);
#439=LINE('',#538,#539);
#440=FILL_AREA_STYLE_COLOUR('',#540);
#441=VERTEX_POINT('',#541);
#442=LINE('',#542,#543);
#443=VERTEX_POINT('',#544);
#444=LINE('',#545,#546);
#445=LINE('',#547,#548);
#446=FILL_AREA_STYLE_COLOUR('',#549);
#447=VERTEX_POINT('',#550);
#448=LINE('',#551,#552);
#449=LINE('',#553,#554);
#450=FILL_AREA_STYLE_COLOUR('',#555);
#451=LINE('',#556,#557);
#452=LINE('',#558,#559);
#453=FILL_AREA_STYLE_COLOUR('',#560);
#454=VERTEX_POINT('',#561);
#455=LINE('',#562,#563);
#456=LINE('',#564,#565);
#457=FILL_AREA_STYLE_COLOUR('',#566);
#458=VERTEX_POINT('',#567);
#459=LINE('',#568,#569);
#460=LINE('',#570,#571);
#461=FILL_AREA_STYLE_COLOUR('',#572);
#462=LINE('',#573,#574);
#463=FILL_AREA_STYLE_COLOUR('',#575);
#464=LINE('',#576,#577);
#465=FILL_AREA_STYLE_COLOUR('',#578);
#466=FILL_AREA_STYLE_COLOUR('',#579);
#467=COLOUR_RGB('',0.937254905700684,0.909803926944733,0.937254905700684);
#468=CARTESIAN_POINT('',(-0.225,-0.25,0.400000004470348));
#469=CARTESIAN_POINT('',(-0.225,0.25,0.400000004470348));
#470=CARTESIAN_POINT('',(-0.225,0.0,0.400000004470348));
#471=VECTOR('',#580,1.0);
#472=CARTESIAN_POINT('',(-0.5,0.25,0.400000004470348));
#473=CARTESIAN_POINT('',(-0.3625,0.25,0.400000004470348));
#474=VECTOR('',#581,1.0);
#475=CARTESIAN_POINT('',(-0.5,-0.25,0.400000004470348));
#476=CARTESIAN_POINT('',(-0.5,0.0,0.400000004470348));
#477=VECTOR('',#582,1.0);
#478=CARTESIAN_POINT('',(-0.3625,-0.25,0.400000004470348));
#479=VECTOR('',#583,1.0);
#480=COLOUR_RGB('',0.0,0.0,0.0);
#481=CARTESIAN_POINT('',(0.225,-0.225,0.0250000074505804));
#482=CARTESIAN_POINT('',(0.225,0.225,0.0250000074505804));
#483=CARTESIAN_POINT('',(0.225,0.0,0.0250000074505805));
#484=VECTOR('',#584,1.0);
#485=CARTESIAN_POINT('',(-0.225,-0.225,0.0250000074505804));
#486=CARTESIAN_POINT('',(0.0,-0.225,0.0250000074505804));
#487=VECTOR('',#585,1.0);
#488=CARTESIAN_POINT('',(-0.225,0.225,0.0250000074505804));
#489=CARTESIAN_POINT('',(-0.225,0.0,0.0250000074505805));
#490=VECTOR('',#586,1.0);
#491=CARTESIAN_POINT('',(0.0,0.225,0.0250000074505804));
#492=VECTOR('',#587,1.0);
#493=COLOUR_RGB('',0.937254905700684,0.909803926944733,0.937254905700684);
#494=COLOUR_RGB('',0.937254905700684,0.909803926944733,0.937254905700684);
#495=CARTESIAN_POINT('',(-0.225,0.25,4.47034820272307E-009));
#496=CARTESIAN_POINT('',(-0.225,0.25,0.200000004470348));
#497=VECTOR('',#588,1.0);
#498=CARTESIAN_POINT('',(-0.5,0.25,4.47034820272307E-009));
#499=CARTESIAN_POINT('',(-0.3625,0.25,4.47034820272307E-009));
#500=VECTOR('',#589,1.0);
#501=CARTESIAN_POINT('',(-0.5,0.25,0.200000004470348));
#502=VECTOR('',#590,1.0);
#503=COLOUR_RGB('',0.0,0.0,0.0);
#504=CARTESIAN_POINT('',(-0.225,-0.225,0.37500000745058));
#505=CARTESIAN_POINT('',(-0.225,-0.225,0.200000005960464));
#506=VECTOR('',#591,1.0);
#507=CARTESIAN_POINT('',(0.225,-0.225,0.37500000745058));
#508=CARTESIAN_POINT('',(0.225,-0.225,0.200000002980232));
#509=VECTOR('',#592,1.0);
#510=CARTESIAN_POINT('',(0.0,-0.225,0.37500000745058));
#511=VECTOR('',#593,1.0);
#512=COLOUR_RGB('',0.0,0.0,0.0);
#513=CARTESIAN_POINT('',(0.225,0.225,0.37500000745058));
#514=CARTESIAN_POINT('',(0.225,0.225,0.200000002980232));
#515=VECTOR('',#594,1.0);
#516=CARTESIAN_POINT('',(-0.225,0.225,0.37500000745058));
#517=CARTESIAN_POINT('',(-0.225,0.225,0.200000005960464));
#518=VECTOR('',#595,1.0);
#519=CARTESIAN_POINT('',(0.0,0.225,0.37500000745058));
#520=VECTOR('',#596,1.0);
#521=COLOUR_RGB('',0.937254905700684,0.909803926944733,0.937254905700684);
#522=CARTESIAN_POINT('',(-0.5,-0.25,4.47034820272307E-009));
#523=CARTESIAN_POINT('',(-0.5,0.0,4.47034820272307E-009));
#524=VECTOR('',#597,1.0);
#525=CARTESIAN_POINT('',(-0.5,-0.25,0.200000004470348));
#526=VECTOR('',#598,1.0);
#527=COLOUR_RGB('',0.937254905700684,0.909803926944733,0.937254905700684);
#528=CARTESIAN_POINT('',(0.5,0.25,1.49011614158923E-009));
#529=CARTESIAN_POINT('',(0.5,-0.25,1.49011614158923E-009));
#530=CARTESIAN_POINT('',(0.5,0.0,1.49011614158923E-009));
#531=VECTOR('',#599,1.0);
#532=CARTESIAN_POINT('',(0.225,-0.25,1.49011614158923E-009));
#533=CARTESIAN_POINT('',(0.3625,-0.25,1.49011614158923E-009));
#534=VECTOR('',#600,1.0);
#535=CARTESIAN_POINT('',(0.225,0.25,1.49011614158923E-009));
#536=CARTESIAN_POINT('',(0.225,0.0,1.49011614158923E-009));
#537=VECTOR('',#601,1.0);
#538=CARTESIAN_POINT('',(0.3625,0.25,1.49011614158923E-009));
#539=VECTOR('',#602,1.0);
#540=COLOUR_RGB('',0.937254905700684,0.909803926944733,0.937254905700684);
#541=CARTESIAN_POINT('',(0.225,-0.25,0.399999995529652));
#542=CARTESIAN_POINT('',(0.225,-0.25,0.199999998509884));
#543=VECTOR('',#603,1.0);
#544=CARTESIAN_POINT('',(0.5,-0.25,0.399999995529652));
#545=CARTESIAN_POINT('',(0.5,-0.25,0.199999998509884));
#546=VECTOR('',#604,1.0);
#547=CARTESIAN_POINT('',(0.3625,-0.25,0.399999995529652));
#548=VECTOR('',#605,1.0);
#549=COLOUR_RGB('',0.937254905700684,0.909803926944733,0.937254905700684);
#550=CARTESIAN_POINT('',(0.5,0.25,0.399999995529652));
#551=CARTESIAN_POINT('',(0.5,0.25,0.199999998509884));
#552=VECTOR('',#606,1.0);
#553=CARTESIAN_POINT('',(0.5,0.0,0.399999995529652));
#554=VECTOR('',#607,1.0);
#555=COLOUR_RGB('',0.0,0.0,0.0);
#556=CARTESIAN_POINT('',(0.225,0.0,0.37500000745058));
#557=VECTOR('',#608,1.0);
#558=CARTESIAN_POINT('',(-0.225,0.0,0.37500000745058));
#559=VECTOR('',#609,1.0);
#560=COLOUR_RGB('',0.937254905700684,0.909803926944733,0.937254905700684);
#561=CARTESIAN_POINT('',(-0.225,-0.25,4.47034820272307E-009));
#562=CARTESIAN_POINT('',(-0.3625,-0.25,4.47034820272307E-009));
#563=VECTOR('',#610,1.0);
#564=CARTESIAN_POINT('',(-0.225,-0.25,0.200000004470348));
#565=VECTOR('',#611,1.0);
#566=COLOUR_RGB('',0.937254905700684,0.909803926944733,0.937254905700684);
#567=CARTESIAN_POINT('',(0.225,0.25,0.399999995529652));
#568=CARTESIAN_POINT('',(0.225,0.25,0.199999998509884));
#569=VECTOR('',#612,1.0);
#570=CARTESIAN_POINT('',(0.225,0.0,0.399999995529652));
#571=VECTOR('',#613,1.0);
#572=COLOUR_RGB('',0.937254905700684,0.909803926944733,0.937254905700684);
#573=CARTESIAN_POINT('',(0.3625,0.25,0.399999995529652));
#574=VECTOR('',#614,1.0);
#575=COLOUR_RGB('',0.937254905700684,0.909803926944733,0.937254905700684);
#576=CARTESIAN_POINT('',(-0.225,0.0,4.47034820272307E-009));
#577=VECTOR('',#615,1.0);
#578=COLOUR_RGB('',0.937254905700684,0.909803926944733,0.937254905700684);
#579=COLOUR_RGB('',0.937254905700684,0.909803926944733,0.937254905700684);
#580=DIRECTION('',(0.0,1.0,0.0));
#581=DIRECTION('',(-1.0,0.0,0.0));
#582=DIRECTION('',(0.0,-1.0,0.0));
#583=DIRECTION('',(1.0,0.0,0.0));
#584=DIRECTION('',(0.0,1.0,0.0));
#585=DIRECTION('',(-1.0,0.0,0.0));
#586=DIRECTION('',(0.0,-1.0,0.0));
#587=DIRECTION('',(1.0,0.0,0.0));
#588=DIRECTION('',(0.0,0.0,-1.0));
#589=DIRECTION('',(1.0,0.0,0.0));
#590=DIRECTION('',(0.0,0.0,-1.0));
#591=DIRECTION('',(0.0,0.0,1.0));
#592=DIRECTION('',(0.0,0.0,-1.0));
#593=DIRECTION('',(1.0,0.0,0.0));
#594=DIRECTION('',(0.0,0.0,1.0));
#595=DIRECTION('',(-0.0,-0.0,-1.0));
#596=DIRECTION('',(-1.0,0.0,0.0));
#597=DIRECTION('',(0.0,1.0,0.0));
#598=DIRECTION('',(0.0,0.0,-1.0));
#599=DIRECTION('',(0.0,-1.0,0.0));
#600=DIRECTION('',(-1.0,0.0,0.0));
#601=DIRECTION('',(0.0,1.0,0.0));
#602=DIRECTION('',(1.0,0.0,0.0));
#603=DIRECTION('',(0.0,0.0,-1.0));
#604=DIRECTION('',(0.0,0.0,-1.0));
#605=DIRECTION('',(1.0,0.0,0.0));
#606=DIRECTION('',(0.0,0.0,-1.0));
#607=DIRECTION('',(0.0,1.0,0.0));
#608=DIRECTION('',(0.0,-1.0,0.0));
#609=DIRECTION('',(0.0,1.0,0.0));
#610=DIRECTION('',(-1.0,0.0,0.0));
#611=DIRECTION('',(0.0,0.0,-1.0));
#612=DIRECTION('',(0.0,0.0,-1.0));
#613=DIRECTION('',(0.0,-1.0,0.0));
#614=DIRECTION('',(-1.0,0.0,0.0));
#615=DIRECTION('',(0.0,-1.0,0.0));
ENDSEC;
END-ISO-10303-21;
