ISO-10303-21;
HEADER;
FILE_DESCRIPTION(('STEP AP214'),'1');
FILE_NAME('D:/Daten/Step/CB/SMD_discrete/tmp0.STP','2012-03-15T13:25:34',(' '),(' '),'Spatial InterOp 3D',' ',' ');
FILE_SCHEMA(('automotive_design'));
ENDSEC;
DATA;
#1=MECHANICAL_DESIGN_GEOMETRIC_PRESENTATION_REPRESENTATION(' ',(#10,#11,#12,#13,#14,#15,#16,#17,#18,#19,#20,#21,#22,#23,#24,#25,#26),#6);
#2=PRODUCT_DEFINITION_CONTEXT('',#27,'design');
#3=APPLICATION_PROTOCOL_DEFINITION('INTERNATIONAL STANDARD','automotive_design',1994,#27);
#4=PRODUCT_CATEGORY_RELATIONSHIP('NONE','NONE',#28,#29);
#5=SHAPE_DEFINITION_REPRESENTATION(#30,#31);
#6= (GEOMETRIC_REPRESENTATION_CONTEXT(3)GLOBAL_UNCERTAINTY_ASSIGNED_CONTEXT((#34))GLOBAL_UNIT_ASSIGNED_CONTEXT((#36,#37,#38))REPRESENTATION_CONTEXT('NONE','WORKSPACE'));
#10=STYLED_ITEM('',(#40),#41);
#11=STYLED_ITEM('',(#42),#43);
#12=STYLED_ITEM('',(#44),#45);
#13=STYLED_ITEM('',(#46),#47);
#14=STYLED_ITEM('',(#48),#49);
#15=STYLED_ITEM('',(#50),#51);
#16=STYLED_ITEM('',(#52),#53);
#17=STYLED_ITEM('',(#54),#55);
#18=STYLED_ITEM('',(#56),#57);
#19=STYLED_ITEM('',(#58),#59);
#20=STYLED_ITEM('',(#60),#61);
#21=STYLED_ITEM('',(#62),#63);
#22=STYLED_ITEM('',(#64),#65);
#23=STYLED_ITEM('',(#66),#67);
#24=STYLED_ITEM('',(#68),#69);
#25=STYLED_ITEM('',(#70),#71);
#26=STYLED_ITEM('',(#72),#73);
#27=APPLICATION_CONTEXT(' ');
#28=PRODUCT_CATEGORY('part','NONE');
#29=PRODUCT_RELATED_PRODUCT_CATEGORY('detail',' ',(#74));
#30=PRODUCT_DEFINITION_SHAPE('NONE','NONE',#75);
#31=ADVANCED_BREP_SHAPE_REPRESENTATION('1',(#73,#76),#6);
#34=UNCERTAINTY_MEASURE_WITH_UNIT(LENGTH_MEASURE(1.0E-006),#36,'','');
#36= (CONVERSION_BASED_UNIT('MILLIMETRE',#79)LENGTH_UNIT()NAMED_UNIT(#82));
#37= (NAMED_UNIT(#84)PLANE_ANGLE_UNIT()SI_UNIT($,.RADIAN.));
#38= (NAMED_UNIT(#84)SOLID_ANGLE_UNIT()SI_UNIT($,.STERADIAN.));
#40=PRESENTATION_STYLE_ASSIGNMENT((#90));
#41=ADVANCED_FACE('',(#91),#92,.F.);
#42=PRESENTATION_STYLE_ASSIGNMENT((#93));
#43=ADVANCED_FACE('',(#94),#95,.F.);
#44=PRESENTATION_STYLE_ASSIGNMENT((#96));
#45=ADVANCED_FACE('',(#97),#98,.F.);
#46=PRESENTATION_STYLE_ASSIGNMENT((#99));
#47=ADVANCED_FACE('',(#100),#101,.F.);
#48=PRESENTATION_STYLE_ASSIGNMENT((#102));
#49=ADVANCED_FACE('',(#103),#104,.T.);
#50=PRESENTATION_STYLE_ASSIGNMENT((#105));
#51=ADVANCED_FACE('',(#106),#107,.T.);
#52=PRESENTATION_STYLE_ASSIGNMENT((#108));
#53=ADVANCED_FACE('',(#109),#110,.F.);
#54=PRESENTATION_STYLE_ASSIGNMENT((#111));
#55=ADVANCED_FACE('',(#112),#113,.F.);
#56=PRESENTATION_STYLE_ASSIGNMENT((#114));
#57=ADVANCED_FACE('',(#115,#116),#117,.F.);
#58=PRESENTATION_STYLE_ASSIGNMENT((#118));
#59=ADVANCED_FACE('',(#119),#120,.F.);
#60=PRESENTATION_STYLE_ASSIGNMENT((#121));
#61=ADVANCED_FACE('',(#122),#123,.F.);
#62=PRESENTATION_STYLE_ASSIGNMENT((#124));
#63=ADVANCED_FACE('',(#125,#126),#127,.F.);
#64=PRESENTATION_STYLE_ASSIGNMENT((#128));
#65=ADVANCED_FACE('',(#129),#130,.F.);
#66=PRESENTATION_STYLE_ASSIGNMENT((#131));
#67=ADVANCED_FACE('',(#132),#133,.T.);
#68=PRESENTATION_STYLE_ASSIGNMENT((#134));
#69=ADVANCED_FACE('',(#135),#136,.F.);
#70=PRESENTATION_STYLE_ASSIGNMENT((#137));
#71=ADVANCED_FACE('',(#138),#139,.F.);
#72=PRESENTATION_STYLE_ASSIGNMENT((#140));
#73=MANIFOLD_SOLID_BREP('1',#141);
#74=PRODUCT('1','1','PART-1-DESC',(#142));
#75=PRODUCT_DEFINITION('NONE','NONE',#143,#2);
#76=AXIS2_PLACEMENT_3D('',#144,#145,#146);
#79=LENGTH_MEASURE_WITH_UNIT(LENGTH_MEASURE(1.0),#147);
#82=DIMENSIONAL_EXPONENTS(1.0,0.0,0.0,0.0,0.0,0.0,0.0);
#84=DIMENSIONAL_EXPONENTS(0.0,0.0,0.0,0.0,0.0,0.0,0.0);
#90=SURFACE_STYLE_USAGE(.BOTH.,#148);
#91=FACE_OUTER_BOUND('',#149,.T.);
#92=PLANE('',#150);
#93=SURFACE_STYLE_USAGE(.BOTH.,#151);
#94=FACE_OUTER_BOUND('',#152,.T.);
#95=PLANE('',#153);
#96=SURFACE_STYLE_USAGE(.BOTH.,#154);
#97=FACE_OUTER_BOUND('',#155,.T.);
#98=PLANE('',#156);
#99=SURFACE_STYLE_USAGE(.BOTH.,#157);
#100=FACE_OUTER_BOUND('',#158,.T.);
#101=PLANE('',#159);
#102=SURFACE_STYLE_USAGE(.BOTH.,#160);
#103=FACE_OUTER_BOUND('',#161,.T.);
#104=PLANE('',#162);
#105=SURFACE_STYLE_USAGE(.BOTH.,#163);
#106=FACE_OUTER_BOUND('',#164,.T.);
#107=PLANE('',#165);
#108=SURFACE_STYLE_USAGE(.BOTH.,#166);
#109=FACE_OUTER_BOUND('',#167,.T.);
#110=PLANE('',#168);
#111=SURFACE_STYLE_USAGE(.BOTH.,#169);
#112=FACE_OUTER_BOUND('',#170,.T.);
#113=PLANE('',#171);
#114=SURFACE_STYLE_USAGE(.BOTH.,#172);
#115=FACE_BOUND('',#173,.T.);
#116=FACE_OUTER_BOUND('',#174,.T.);
#117=PLANE('',#175);
#118=SURFACE_STYLE_USAGE(.BOTH.,#176);
#119=FACE_OUTER_BOUND('',#177,.T.);
#120=PLANE('',#178);
#121=SURFACE_STYLE_USAGE(.BOTH.,#179);
#122=FACE_OUTER_BOUND('',#180,.T.);
#123=PLANE('',#181);
#124=SURFACE_STYLE_USAGE(.BOTH.,#182);
#125=FACE_BOUND('',#183,.T.);
#126=FACE_OUTER_BOUND('',#184,.T.);
#127=PLANE('',#185);
#128=SURFACE_STYLE_USAGE(.BOTH.,#186);
#129=FACE_OUTER_BOUND('',#187,.T.);
#130=PLANE('',#188);
#131=SURFACE_STYLE_USAGE(.BOTH.,#189);
#132=FACE_OUTER_BOUND('',#190,.T.);
#133=PLANE('',#191);
#134=SURFACE_STYLE_USAGE(.BOTH.,#192);
#135=FACE_OUTER_BOUND('',#193,.T.);
#136=PLANE('',#194);
#137=SURFACE_STYLE_USAGE(.BOTH.,#195);
#138=FACE_OUTER_BOUND('',#196,.T.);
#139=PLANE('',#197);
#140=SURFACE_STYLE_USAGE(.BOTH.,#198);
#141=CLOSED_SHELL('',(#67,#59,#69,#47,#49,#71,#43,#63,#61,#41,#51,#53,#65,#45,#55,#57));
#142=PRODUCT_CONTEXT('',#27,'mechanical');
#143=PRODUCT_DEFINITION_FORMATION_WITH_SPECIFIED_SOURCE(' ','NONE',#74,.NOT_KNOWN.);
#144=CARTESIAN_POINT('',(0.0,0.0,0.0));
#145=DIRECTION('',(0.0,0.0,1.0));
#146=DIRECTION('',(1.0,0.0,0.0));
#147= (NAMED_UNIT(#82)LENGTH_UNIT()SI_UNIT(.MILLI.,.METRE.));
#148=SURFACE_SIDE_STYLE('',(#200));
#149=EDGE_LOOP('',(#201,#202,#203,#204));
#150=AXIS2_PLACEMENT_3D('',#205,#206,#207);
#151=SURFACE_SIDE_STYLE('',(#208));
#152=EDGE_LOOP('',(#209,#210,#211,#212));
#153=AXIS2_PLACEMENT_3D('',#213,#214,#215);
#154=SURFACE_SIDE_STYLE('',(#216));
#155=EDGE_LOOP('',(#217,#218,#219,#220));
#156=AXIS2_PLACEMENT_3D('',#221,#222,#223);
#157=SURFACE_SIDE_STYLE('',(#224));
#158=EDGE_LOOP('',(#225,#226,#227,#228));
#159=AXIS2_PLACEMENT_3D('',#229,#230,#231);
#160=SURFACE_SIDE_STYLE('',(#232));
#161=EDGE_LOOP('',(#233,#234,#235,#236));
#162=AXIS2_PLACEMENT_3D('',#237,#238,#239);
#163=SURFACE_SIDE_STYLE('',(#240));
#164=EDGE_LOOP('',(#241,#242,#243,#244));
#165=AXIS2_PLACEMENT_3D('',#245,#246,#247);
#166=SURFACE_SIDE_STYLE('',(#248));
#167=EDGE_LOOP('',(#249,#250,#251,#252));
#168=AXIS2_PLACEMENT_3D('',#253,#254,#255);
#169=SURFACE_SIDE_STYLE('',(#256));
#170=EDGE_LOOP('',(#257,#258,#259,#260));
#171=AXIS2_PLACEMENT_3D('',#261,#262,#263);
#172=SURFACE_SIDE_STYLE('',(#264));
#173=EDGE_LOOP('',(#265,#266,#267,#268));
#174=EDGE_LOOP('',(#269,#270,#271,#272));
#175=AXIS2_PLACEMENT_3D('',#273,#274,#275);
#176=SURFACE_SIDE_STYLE('',(#276));
#177=EDGE_LOOP('',(#277,#278,#279,#280));
#178=AXIS2_PLACEMENT_3D('',#281,#282,#283);
#179=SURFACE_SIDE_STYLE('',(#284));
#180=EDGE_LOOP('',(#285,#286,#287,#288));
#181=AXIS2_PLACEMENT_3D('',#289,#290,#291);
#182=SURFACE_SIDE_STYLE('',(#292));
#183=EDGE_LOOP('',(#293,#294,#295,#296));
#184=EDGE_LOOP('',(#297,#298,#299,#300));
#185=AXIS2_PLACEMENT_3D('',#301,#302,#303);
#186=SURFACE_SIDE_STYLE('',(#304));
#187=EDGE_LOOP('',(#305,#306,#307,#308));
#188=AXIS2_PLACEMENT_3D('',#309,#310,#311);
#189=SURFACE_SIDE_STYLE('',(#312));
#190=EDGE_LOOP('',(#313,#314,#315,#316));
#191=AXIS2_PLACEMENT_3D('',#317,#318,#319);
#192=SURFACE_SIDE_STYLE('',(#320));
#193=EDGE_LOOP('',(#321,#322,#323,#324));
#194=AXIS2_PLACEMENT_3D('',#325,#326,#327);
#195=SURFACE_SIDE_STYLE('',(#328));
#196=EDGE_LOOP('',(#329,#330,#331,#332));
#197=AXIS2_PLACEMENT_3D('',#333,#334,#335);
#198=SURFACE_SIDE_STYLE('',(#336));
#200=SURFACE_STYLE_FILL_AREA(#337);
#201=ORIENTED_EDGE('',*,*,#338,.T.);
#202=ORIENTED_EDGE('',*,*,#339,.F.);
#203=ORIENTED_EDGE('',*,*,#340,.F.);
#204=ORIENTED_EDGE('',*,*,#341,.T.);
#205=CARTESIAN_POINT('',(1.605,0.0,0.300000014901162));
#206=DIRECTION('',(-1.0,0.0,0.0));
#207=DIRECTION('',(0.0,0.0,1.0));
#208=SURFACE_STYLE_FILL_AREA(#342);
#209=ORIENTED_EDGE('',*,*,#343,.T.);
#210=ORIENTED_EDGE('',*,*,#344,.F.);
#211=ORIENTED_EDGE('',*,*,#338,.F.);
#212=ORIENTED_EDGE('',*,*,#345,.T.);
#213=CARTESIAN_POINT('',(1.34,-0.8,0.300000014901162));
#214=DIRECTION('',(-0.0,1.0,0.0));
#215=DIRECTION('',(1.0,0.0,0.0));
#216=SURFACE_STYLE_FILL_AREA(#346);
#217=ORIENTED_EDGE('',*,*,#347,.T.);
#218=ORIENTED_EDGE('',*,*,#348,.F.);
#219=ORIENTED_EDGE('',*,*,#349,.T.);
#220=ORIENTED_EDGE('',*,*,#350,.T.);
#221=CARTESIAN_POINT('',(-1.605,0.0,0.300000008940697));
#222=DIRECTION('',(1.0,0.0,0.0));
#223=DIRECTION('',(0.0,1.0,0.0));
#224=SURFACE_STYLE_FILL_AREA(#351);
#225=ORIENTED_EDGE('',*,*,#352,.F.);
#226=ORIENTED_EDGE('',*,*,#353,.F.);
#227=ORIENTED_EDGE('',*,*,#354,.F.);
#228=ORIENTED_EDGE('',*,*,#355,.T.);
#229=CARTESIAN_POINT('',(0.0,0.775,0.300000020861626));
#230=DIRECTION('',(0.0,-1.0,0.0));
#231=DIRECTION('',(0.0,0.0,-1.0));
#232=SURFACE_STYLE_FILL_AREA(#356);
#233=ORIENTED_EDGE('',*,*,#357,.F.);
#234=ORIENTED_EDGE('',*,*,#358,.F.);
#235=ORIENTED_EDGE('',*,*,#345,.F.);
#236=ORIENTED_EDGE('',*,*,#341,.F.);
#237=CARTESIAN_POINT('',(1.075,0.8,1.50000002086163));
#238=DIRECTION('',(0.0,0.0,1.0));
#239=DIRECTION('',(1.0,0.0,0.0));
#240=SURFACE_STYLE_FILL_AREA(#359);
#241=ORIENTED_EDGE('',*,*,#360,.F.);
#242=ORIENTED_EDGE('',*,*,#350,.F.);
#243=ORIENTED_EDGE('',*,*,#361,.F.);
#244=ORIENTED_EDGE('',*,*,#362,.F.);
#245=CARTESIAN_POINT('',(-1.605,0.8,1.50000001490116));
#246=DIRECTION('',(0.0,0.0,1.0));
#247=DIRECTION('',(1.0,0.0,0.0));
#248=SURFACE_STYLE_FILL_AREA(#363);
#249=ORIENTED_EDGE('',*,*,#364,.T.);
#250=ORIENTED_EDGE('',*,*,#365,.T.);
#251=ORIENTED_EDGE('',*,*,#348,.T.);
#252=ORIENTED_EDGE('',*,*,#366,.T.);
#253=CARTESIAN_POINT('',(-1.34,0.0,2.9802323386896E-009));
#254=DIRECTION('',(0.0,0.0,1.0));
#255=DIRECTION('',(1.0,0.0,0.0));
#256=SURFACE_STYLE_FILL_AREA(#367);
#257=ORIENTED_EDGE('',*,*,#368,.T.);
#258=ORIENTED_EDGE('',*,*,#366,.F.);
#259=ORIENTED_EDGE('',*,*,#347,.F.);
#260=ORIENTED_EDGE('',*,*,#360,.T.);
#261=CARTESIAN_POINT('',(-1.34,0.8,0.300000008940697));
#262=DIRECTION('',(0.0,-1.0,0.0));
#263=DIRECTION('',(0.0,0.0,-1.0));
#264=SURFACE_STYLE_FILL_AREA(#369);
#265=ORIENTED_EDGE('',*,*,#370,.T.);
#266=ORIENTED_EDGE('',*,*,#371,.T.);
#267=ORIENTED_EDGE('',*,*,#372,.T.);
#268=ORIENTED_EDGE('',*,*,#354,.T.);
#269=ORIENTED_EDGE('',*,*,#373,.T.);
#270=ORIENTED_EDGE('',*,*,#364,.F.);
#271=ORIENTED_EDGE('',*,*,#368,.F.);
#272=ORIENTED_EDGE('',*,*,#362,.T.);
#273=CARTESIAN_POINT('',(-1.075,0.0,0.300000008940697));
#274=DIRECTION('',(-1.0,0.0,0.0));
#275=DIRECTION('',(0.0,0.0,1.0));
#276=SURFACE_STYLE_FILL_AREA(#374);
#277=ORIENTED_EDGE('',*,*,#375,.F.);
#278=ORIENTED_EDGE('',*,*,#376,.T.);
#279=ORIENTED_EDGE('',*,*,#370,.F.);
#280=ORIENTED_EDGE('',*,*,#353,.T.);
#281=CARTESIAN_POINT('',(0.0,0.0,0.0250000208616261));
#282=DIRECTION('',(0.0,0.0,1.0));
#283=DIRECTION('',(1.0,0.0,0.0));
#284=SURFACE_STYLE_FILL_AREA(#377);
#285=ORIENTED_EDGE('',*,*,#340,.T.);
#286=ORIENTED_EDGE('',*,*,#378,.F.);
#287=ORIENTED_EDGE('',*,*,#379,.T.);
#288=ORIENTED_EDGE('',*,*,#357,.T.);
#289=CARTESIAN_POINT('',(1.34,0.8,0.300000014901162));
#290=DIRECTION('',(0.0,-1.0,0.0));
#291=DIRECTION('',(0.0,0.0,-1.0));
#292=SURFACE_STYLE_FILL_AREA(#380);
#293=ORIENTED_EDGE('',*,*,#375,.T.);
#294=ORIENTED_EDGE('',*,*,#352,.T.);
#295=ORIENTED_EDGE('',*,*,#381,.T.);
#296=ORIENTED_EDGE('',*,*,#382,.T.);
#297=ORIENTED_EDGE('',*,*,#379,.F.);
#298=ORIENTED_EDGE('',*,*,#383,.F.);
#299=ORIENTED_EDGE('',*,*,#343,.F.);
#300=ORIENTED_EDGE('',*,*,#358,.T.);
#301=CARTESIAN_POINT('',(1.075,0.0,0.300000014901162));
#302=DIRECTION('',(1.0,0.0,0.0));
#303=DIRECTION('',(0.0,1.0,0.0));
#304=SURFACE_STYLE_FILL_AREA(#384);
#305=ORIENTED_EDGE('',*,*,#349,.F.);
#306=ORIENTED_EDGE('',*,*,#365,.F.);
#307=ORIENTED_EDGE('',*,*,#373,.F.);
#308=ORIENTED_EDGE('',*,*,#361,.T.);
#309=CARTESIAN_POINT('',(-1.34,-0.8,0.300000008940697));
#310=DIRECTION('',(-0.0,1.0,0.0));
#311=DIRECTION('',(1.0,0.0,0.0));
#312=SURFACE_STYLE_FILL_AREA(#385);
#313=ORIENTED_EDGE('',*,*,#355,.F.);
#314=ORIENTED_EDGE('',*,*,#372,.F.);
#315=ORIENTED_EDGE('',*,*,#386,.F.);
#316=ORIENTED_EDGE('',*,*,#381,.F.);
#317=CARTESIAN_POINT('',(-1.075,0.775,1.47500002086163));
#318=DIRECTION('',(0.0,0.0,1.0));
#319=DIRECTION('',(1.0,0.0,0.0));
#320=SURFACE_STYLE_FILL_AREA(#387);
#321=ORIENTED_EDGE('',*,*,#371,.F.);
#322=ORIENTED_EDGE('',*,*,#376,.F.);
#323=ORIENTED_EDGE('',*,*,#382,.F.);
#324=ORIENTED_EDGE('',*,*,#386,.T.);
#325=CARTESIAN_POINT('',(0.0,-0.775,0.300000020861626));
#326=DIRECTION('',(-0.0,1.0,0.0));
#327=DIRECTION('',(1.0,0.0,0.0));
#328=SURFACE_STYLE_FILL_AREA(#388);
#329=ORIENTED_EDGE('',*,*,#339,.T.);
#330=ORIENTED_EDGE('',*,*,#344,.T.);
#331=ORIENTED_EDGE('',*,*,#383,.T.);
#332=ORIENTED_EDGE('',*,*,#378,.T.);
#333=CARTESIAN_POINT('',(1.34,0.0,8.94069701606881E-009));
#334=DIRECTION('',(0.0,0.0,1.0));
#335=DIRECTION('',(1.0,0.0,0.0));
#336=SURFACE_STYLE_FILL_AREA(#389);
#337=FILL_AREA_STYLE('',(#390));
#338=EDGE_CURVE('',#391,#392,#393,.T.);
#339=EDGE_CURVE('',#394,#392,#395,.T.);
#340=EDGE_CURVE('',#396,#394,#397,.T.);
#341=EDGE_CURVE('',#396,#391,#398,.T.);
#342=FILL_AREA_STYLE('',(#399));
#343=EDGE_CURVE('',#400,#401,#402,.T.);
#344=EDGE_CURVE('',#392,#401,#403,.T.);
#345=EDGE_CURVE('',#391,#400,#404,.T.);
#346=FILL_AREA_STYLE('',(#405));
#347=EDGE_CURVE('',#406,#407,#408,.T.);
#348=EDGE_CURVE('',#409,#407,#410,.T.);
#349=EDGE_CURVE('',#409,#411,#412,.T.);
#350=EDGE_CURVE('',#411,#406,#413,.T.);
#351=FILL_AREA_STYLE('',(#414));
#352=EDGE_CURVE('',#415,#416,#417,.T.);
#353=EDGE_CURVE('',#418,#415,#419,.T.);
#354=EDGE_CURVE('',#420,#418,#421,.T.);
#355=EDGE_CURVE('',#420,#416,#422,.T.);
#356=FILL_AREA_STYLE('',(#423));
#357=EDGE_CURVE('',#424,#396,#425,.T.);
#358=EDGE_CURVE('',#400,#424,#426,.T.);
#359=FILL_AREA_STYLE('',(#427));
#360=EDGE_CURVE('',#406,#428,#429,.T.);
#361=EDGE_CURVE('',#430,#411,#431,.T.);
#362=EDGE_CURVE('',#428,#430,#432,.T.);
#363=FILL_AREA_STYLE('',(#433));
#364=EDGE_CURVE('',#434,#435,#436,.T.);
#365=EDGE_CURVE('',#435,#409,#437,.T.);
#366=EDGE_CURVE('',#407,#434,#438,.T.);
#367=FILL_AREA_STYLE('',(#439));
#368=EDGE_CURVE('',#428,#434,#440,.T.);
#369=FILL_AREA_STYLE('',(#441));
#370=EDGE_CURVE('',#418,#442,#443,.T.);
#371=EDGE_CURVE('',#442,#444,#445,.T.);
#372=EDGE_CURVE('',#444,#420,#446,.T.);
#373=EDGE_CURVE('',#430,#435,#447,.T.);
#374=FILL_AREA_STYLE('',(#448));
#375=EDGE_CURVE('',#449,#415,#450,.T.);
#376=EDGE_CURVE('',#449,#442,#451,.T.);
#377=FILL_AREA_STYLE('',(#452));
#378=EDGE_CURVE('',#453,#394,#454,.T.);
#379=EDGE_CURVE('',#453,#424,#455,.T.);
#380=FILL_AREA_STYLE('',(#456));
#381=EDGE_CURVE('',#416,#457,#458,.T.);
#382=EDGE_CURVE('',#457,#449,#459,.T.);
#383=EDGE_CURVE('',#401,#453,#460,.T.);
#384=FILL_AREA_STYLE('',(#461));
#385=FILL_AREA_STYLE('',(#462));
#386=EDGE_CURVE('',#457,#444,#463,.T.);
#387=FILL_AREA_STYLE('',(#464));
#388=FILL_AREA_STYLE('',(#465));
#389=FILL_AREA_STYLE('',(#466));
#390=FILL_AREA_STYLE_COLOUR('',#467);
#391=VERTEX_POINT('',#468);
#392=VERTEX_POINT('',#469);
#393=LINE('',#470,#471);
#394=VERTEX_POINT('',#472);
#395=LINE('',#473,#474);
#396=VERTEX_POINT('',#475);
#397=LINE('',#476,#477);
#398=LINE('',#478,#479);
#399=FILL_AREA_STYLE_COLOUR('',#480);
#400=VERTEX_POINT('',#481);
#401=VERTEX_POINT('',#482);
#402=LINE('',#483,#484);
#403=LINE('',#485,#486);
#404=LINE('',#487,#488);
#405=FILL_AREA_STYLE_COLOUR('',#489);
#406=VERTEX_POINT('',#490);
#407=VERTEX_POINT('',#491);
#408=LINE('',#492,#493);
#409=VERTEX_POINT('',#494);
#410=LINE('',#495,#496);
#411=VERTEX_POINT('',#497);
#412=LINE('',#498,#499);
#413=LINE('',#500,#501);
#414=FILL_AREA_STYLE_COLOUR('',#502);
#415=VERTEX_POINT('',#503);
#416=VERTEX_POINT('',#504);
#417=LINE('',#505,#506);
#418=VERTEX_POINT('',#507);
#419=LINE('',#508,#509);
#420=VERTEX_POINT('',#510);
#421=LINE('',#511,#512);
#422=LINE('',#513,#514);
#423=FILL_AREA_STYLE_COLOUR('',#515);
#424=VERTEX_POINT('',#516);
#425=LINE('',#517,#518);
#426=LINE('',#519,#520);
#427=FILL_AREA_STYLE_COLOUR('',#521);
#428=VERTEX_POINT('',#522);
#429=LINE('',#523,#524);
#430=VERTEX_POINT('',#525);
#431=LINE('',#526,#527);
#432=LINE('',#528,#529);
#433=FILL_AREA_STYLE_COLOUR('',#530);
#434=VERTEX_POINT('',#531);
#435=VERTEX_POINT('',#532);
#436=LINE('',#533,#534);
#437=LINE('',#535,#536);
#438=LINE('',#537,#538);
#439=FILL_AREA_STYLE_COLOUR('',#539);
#440=LINE('',#540,#541);
#441=FILL_AREA_STYLE_COLOUR('',#542);
#442=VERTEX_POINT('',#543);
#443=LINE('',#544,#545);
#444=VERTEX_POINT('',#546);
#445=LINE('',#547,#548);
#446=LINE('',#549,#550);
#447=LINE('',#551,#552);
#448=FILL_AREA_STYLE_COLOUR('',#553);
#449=VERTEX_POINT('',#554);
#450=LINE('',#555,#556);
#451=LINE('',#557,#558);
#452=FILL_AREA_STYLE_COLOUR('',#559);
#453=VERTEX_POINT('',#560);
#454=LINE('',#561,#562);
#455=LINE('',#563,#564);
#456=FILL_AREA_STYLE_COLOUR('',#565);
#457=VERTEX_POINT('',#566);
#458=LINE('',#567,#568);
#459=LINE('',#569,#570);
#460=LINE('',#571,#572);
#461=FILL_AREA_STYLE_COLOUR('',#573);
#462=FILL_AREA_STYLE_COLOUR('',#574);
#463=LINE('',#575,#576);
#464=FILL_AREA_STYLE_COLOUR('',#577);
#465=FILL_AREA_STYLE_COLOUR('',#578);
#466=FILL_AREA_STYLE_COLOUR('',#579);
#467=COLOUR_RGB('',0.937254905700684,0.909803926944733,0.937254905700684);
#468=CARTESIAN_POINT('',(1.605,-0.8,1.50000002086163));
#469=CARTESIAN_POINT('',(1.605,-0.8,8.94069701606881E-009));
#470=CARTESIAN_POINT('',(1.605,-0.8,0.300000014901162));
#471=VECTOR('',#580,1.0);
#472=CARTESIAN_POINT('',(1.605,0.8,8.94069701606881E-009));
#473=CARTESIAN_POINT('',(1.605,0.0,8.94069701606881E-009));
#474=VECTOR('',#581,1.0);
#475=CARTESIAN_POINT('',(1.605,0.8,1.50000002086163));
#476=CARTESIAN_POINT('',(1.605,0.8,0.300000014901162));
#477=VECTOR('',#582,1.0);
#478=CARTESIAN_POINT('',(1.605,-0.8,1.50000002086163));
#479=VECTOR('',#583,1.0);
#480=COLOUR_RGB('',0.937254905700684,0.909803926944733,0.937254905700684);
#481=CARTESIAN_POINT('',(1.075,-0.8,1.50000002086163));
#482=CARTESIAN_POINT('',(1.075,-0.8,8.94069701606881E-009));
#483=CARTESIAN_POINT('',(1.075,-0.8,0.300000014901162));
#484=VECTOR('',#584,1.0);
#485=CARTESIAN_POINT('',(1.34,-0.8,8.94069701606881E-009));
#486=VECTOR('',#585,1.0);
#487=CARTESIAN_POINT('',(1.075,-0.8,1.50000002086163));
#488=VECTOR('',#586,1.0);
#489=COLOUR_RGB('',0.937254905700684,0.909803926944733,0.937254905700684);
#490=CARTESIAN_POINT('',(-1.605,0.8,1.50000001490116));
#491=CARTESIAN_POINT('',(-1.605,0.8,2.9802323386896E-009));
#492=CARTESIAN_POINT('',(-1.605,0.8,0.300000008940697));
#493=VECTOR('',#587,1.0);
#494=CARTESIAN_POINT('',(-1.605,-0.8,2.9802323386896E-009));
#495=CARTESIAN_POINT('',(-1.605,0.0,2.9802323386896E-009));
#496=VECTOR('',#588,1.0);
#497=CARTESIAN_POINT('',(-1.605,-0.8,1.50000001490116));
#498=CARTESIAN_POINT('',(-1.605,-0.8,0.600000014901161));
#499=VECTOR('',#589,1.0);
#500=CARTESIAN_POINT('',(-1.605,0.8,1.50000001490116));
#501=VECTOR('',#590,1.0);
#502=COLOUR_RGB('',0.0,0.0,0.0);
#503=CARTESIAN_POINT('',(1.075,0.775,0.0250000208616261));
#504=CARTESIAN_POINT('',(1.075,0.775,1.47500002086163));
#505=CARTESIAN_POINT('',(1.075,0.775,0.300000017881394));
#506=VECTOR('',#591,1.0);
#507=CARTESIAN_POINT('',(-1.075,0.775,0.0250000208616261));
#508=CARTESIAN_POINT('',(0.0,0.775,0.0250000208616261));
#509=VECTOR('',#592,1.0);
#510=CARTESIAN_POINT('',(-1.075,0.775,1.47500002086163));
#511=CARTESIAN_POINT('',(-1.075,0.775,0.300000014901162));
#512=VECTOR('',#593,1.0);
#513=CARTESIAN_POINT('',(1.075,0.775,1.47500002086163));
#514=VECTOR('',#594,1.0);
#515=COLOUR_RGB('',0.937254905700684,0.909803926944733,0.937254905700684);
#516=CARTESIAN_POINT('',(1.075,0.8,1.50000002086163));
#517=CARTESIAN_POINT('',(1.605,0.8,1.50000002086163));
#518=VECTOR('',#595,1.0);
#519=CARTESIAN_POINT('',(1.075,0.8,1.50000002086163));
#520=VECTOR('',#596,1.0);
#521=COLOUR_RGB('',0.937254905700684,0.909803926944733,0.937254905700684);
#522=CARTESIAN_POINT('',(-1.075,0.8,1.50000001490116));
#523=CARTESIAN_POINT('',(-1.075,0.8,1.50000001490116));
#524=VECTOR('',#597,1.0);
#525=CARTESIAN_POINT('',(-1.075,-0.8,1.50000001490116));
#526=CARTESIAN_POINT('',(-1.605,-0.8,1.50000001490116));
#527=VECTOR('',#598,1.0);
#528=CARTESIAN_POINT('',(-1.075,-0.8,1.50000001490116));
#529=VECTOR('',#599,1.0);
#530=COLOUR_RGB('',0.937254905700684,0.909803926944733,0.937254905700684);
#531=CARTESIAN_POINT('',(-1.075,0.8,2.9802323386896E-009));
#532=CARTESIAN_POINT('',(-1.075,-0.8,2.9802323386896E-009));
#533=CARTESIAN_POINT('',(-1.075,0.0,2.9802323386896E-009));
#534=VECTOR('',#600,1.0);
#535=CARTESIAN_POINT('',(-1.34,-0.8,2.9802323386896E-009));
#536=VECTOR('',#601,1.0);
#537=CARTESIAN_POINT('',(-1.34,0.8,2.9802323386896E-009));
#538=VECTOR('',#602,1.0);
#539=COLOUR_RGB('',0.937254905700684,0.909803926944733,0.937254905700684);
#540=CARTESIAN_POINT('',(-1.075,0.8,0.300000008940697));
#541=VECTOR('',#603,1.0);
#542=COLOUR_RGB('',0.937254905700684,0.909803926944733,0.937254905700684);
#543=CARTESIAN_POINT('',(-1.075,-0.775,0.0250000208616261));
#544=CARTESIAN_POINT('',(-1.075,0.0,0.0250000208616261));
#545=VECTOR('',#604,1.0);
#546=CARTESIAN_POINT('',(-1.075,-0.775,1.47500002086163));
#547=CARTESIAN_POINT('',(-1.075,-0.775,0.300000014901162));
#548=VECTOR('',#605,1.0);
#549=CARTESIAN_POINT('',(-1.075,0.3875,1.47500002086163));
#550=VECTOR('',#606,1.0);
#551=CARTESIAN_POINT('',(-1.075,-0.8,0.300000008940697));
#552=VECTOR('',#607,1.0);
#553=COLOUR_RGB('',0.0,0.0,0.0);
#554=CARTESIAN_POINT('',(1.075,-0.775,0.0250000208616261));
#555=CARTESIAN_POINT('',(1.075,0.0,0.0250000208616261));
#556=VECTOR('',#608,1.0);
#557=CARTESIAN_POINT('',(0.0,-0.775,0.0250000208616261));
#558=VECTOR('',#609,1.0);
#559=COLOUR_RGB('',0.937254905700684,0.909803926944733,0.937254905700684);
#560=CARTESIAN_POINT('',(1.075,0.8,8.94069701606881E-009));
#561=CARTESIAN_POINT('',(1.34,0.8,8.94069701606881E-009));
#562=VECTOR('',#610,1.0);
#563=CARTESIAN_POINT('',(1.075,0.8,0.600000020861626));
#564=VECTOR('',#611,1.0);
#565=COLOUR_RGB('',0.937254905700684,0.909803926944733,0.937254905700684);
#566=CARTESIAN_POINT('',(1.075,-0.775,1.47500002086163));
#567=CARTESIAN_POINT('',(1.075,0.3875,1.47500002086163));
#568=VECTOR('',#612,1.0);
#569=CARTESIAN_POINT('',(1.075,-0.775,0.300000017881394));
#570=VECTOR('',#613,1.0);
#571=CARTESIAN_POINT('',(1.075,0.0,8.94069701606881E-009));
#572=VECTOR('',#614,1.0);
#573=COLOUR_RGB('',0.937254905700684,0.909803926944733,0.937254905700684);
#574=COLOUR_RGB('',0.0,0.0,0.0);
#575=CARTESIAN_POINT('',(-1.075,-0.775,1.47500002086163));
#576=VECTOR('',#615,1.0);
#577=COLOUR_RGB('',0.0,0.0,0.0);
#578=COLOUR_RGB('',0.937254905700684,0.909803926944733,0.937254905700684);
#579=COLOUR_RGB('',0.937254905700684,0.909803926944733,0.937254905700684);
#580=DIRECTION('',(0.0,0.0,-1.0));
#581=DIRECTION('',(0.0,-1.0,0.0));
#582=DIRECTION('',(0.0,0.0,-1.0));
#583=DIRECTION('',(-0.0,-1.0,-0.0));
#584=DIRECTION('',(0.0,0.0,-1.0));
#585=DIRECTION('',(-1.0,0.0,0.0));
#586=DIRECTION('',(-1.0,-0.0,-0.0));
#587=DIRECTION('',(0.0,0.0,-1.0));
#588=DIRECTION('',(0.0,1.0,0.0));
#589=DIRECTION('',(0.0,0.0,1.0));
#590=DIRECTION('',(0.0,1.0,0.0));
#591=DIRECTION('',(0.0,0.0,1.0));
#592=DIRECTION('',(1.0,0.0,0.0));
#593=DIRECTION('',(-0.0,-0.0,-1.0));
#594=DIRECTION('',(1.0,0.0,0.0));
#595=DIRECTION('',(1.0,0.0,0.0));
#596=DIRECTION('',(0.0,1.0,0.0));
#597=DIRECTION('',(1.0,0.0,0.0));
#598=DIRECTION('',(-1.0,-0.0,-0.0));
#599=DIRECTION('',(-0.0,-1.0,-0.0));
#600=DIRECTION('',(0.0,-1.0,0.0));
#601=DIRECTION('',(-1.0,0.0,0.0));
#602=DIRECTION('',(1.0,0.0,0.0));
#603=DIRECTION('',(0.0,0.0,-1.0));
#604=DIRECTION('',(0.0,-1.0,0.0));
#605=DIRECTION('',(0.0,0.0,1.0));
#606=DIRECTION('',(0.0,1.0,0.0));
#607=DIRECTION('',(0.0,0.0,-1.0));
#608=DIRECTION('',(0.0,1.0,0.0));
#609=DIRECTION('',(-1.0,0.0,0.0));
#610=DIRECTION('',(1.0,0.0,0.0));
#611=DIRECTION('',(0.0,0.0,1.0));
#612=DIRECTION('',(0.0,-1.0,0.0));
#613=DIRECTION('',(0.0,0.0,-1.0));
#614=DIRECTION('',(0.0,1.0,0.0));
#615=DIRECTION('',(-1.0,-0.0,-0.0));
ENDSEC;
END-ISO-10303-21;
