ISO-10303-21;
HEADER;
FILE_DESCRIPTION(('STEP AP214'),'1');
FILE_NAME('D:/Daten/Step/CB/SMD_discrete/tmp0.STP','2011-11-28T12:58:08',(' '),(' '),'Spatial InterOp 3D',' ',' ');
FILE_SCHEMA(('automotive_design'));
ENDSEC;
DATA;
#1=MECHANICAL_DESIGN_GEOMETRIC_PRESENTATION_REPRESENTATION(' ',(#10,#11,#12,#13,#14,#15,#16,#17,#18,#19,#20,#21,#22,#23,#24,#25,#26),#6);
#2=PRODUCT_DEFINITION_CONTEXT('',#27,'design');
#3=APPLICATION_PROTOCOL_DEFINITION('INTERNATIONAL STANDARD','automotive_design',1994,#27);
#4=PRODUCT_CATEGORY_RELATIONSHIP('NONE','NONE',#28,#29);
#5=SHAPE_DEFINITION_REPRESENTATION(#30,#31);
#6= (GEOMETRIC_REPRESENTATION_CONTEXT(3)GLOBAL_UNCERTAINTY_ASSIGNED_CONTEXT((#34))GLOBAL_UNIT_ASSIGNED_CONTEXT((#36,#37,#38))REPRESENTATION_CONTEXT('NONE','WORKSPACE'));
#10=STYLED_ITEM('',(#40),#41);
#11=STYLED_ITEM('',(#42),#43);
#12=STYLED_ITEM('',(#44),#45);
#13=STYLED_ITEM('',(#46),#47);
#14=STYLED_ITEM('',(#48),#49);
#15=STYLED_ITEM('',(#50),#51);
#16=STYLED_ITEM('',(#52),#53);
#17=STYLED_ITEM('',(#54),#55);
#18=STYLED_ITEM('',(#56),#57);
#19=STYLED_ITEM('',(#58),#59);
#20=STYLED_ITEM('',(#60),#61);
#21=STYLED_ITEM('',(#62),#63);
#22=STYLED_ITEM('',(#64),#65);
#23=STYLED_ITEM('',(#66),#67);
#24=STYLED_ITEM('',(#68),#69);
#25=STYLED_ITEM('',(#70),#71);
#26=STYLED_ITEM('',(#72),#73);
#27=APPLICATION_CONTEXT(' ');
#28=PRODUCT_CATEGORY('part','NONE');
#29=PRODUCT_RELATED_PRODUCT_CATEGORY('detail',' ',(#74));
#30=PRODUCT_DEFINITION_SHAPE('NONE','NONE',#75);
#31=ADVANCED_BREP_SHAPE_REPRESENTATION('1',(#55,#76),#6);
#34=UNCERTAINTY_MEASURE_WITH_UNIT(LENGTH_MEASURE(1.0E-006),#36,'','');
#36= (CONVERSION_BASED_UNIT('MILLIMETRE',#79)LENGTH_UNIT()NAMED_UNIT(#82));
#37= (NAMED_UNIT(#84)PLANE_ANGLE_UNIT()SI_UNIT($,.RADIAN.));
#38= (NAMED_UNIT(#84)SOLID_ANGLE_UNIT()SI_UNIT($,.STERADIAN.));
#40=PRESENTATION_STYLE_ASSIGNMENT((#90));
#41=ADVANCED_FACE('',(#91),#92,.F.);
#42=PRESENTATION_STYLE_ASSIGNMENT((#93));
#43=ADVANCED_FACE('',(#94),#95,.F.);
#44=PRESENTATION_STYLE_ASSIGNMENT((#96));
#45=ADVANCED_FACE('',(#97),#98,.F.);
#46=PRESENTATION_STYLE_ASSIGNMENT((#99));
#47=ADVANCED_FACE('',(#100),#101,.T.);
#48=PRESENTATION_STYLE_ASSIGNMENT((#102));
#49=ADVANCED_FACE('',(#103),#104,.F.);
#50=PRESENTATION_STYLE_ASSIGNMENT((#105));
#51=ADVANCED_FACE('',(#106,#107),#108,.F.);
#52=PRESENTATION_STYLE_ASSIGNMENT((#109));
#53=ADVANCED_FACE('',(#110),#111,.T.);
#54=PRESENTATION_STYLE_ASSIGNMENT((#112));
#55=MANIFOLD_SOLID_BREP('1',#113);
#56=PRESENTATION_STYLE_ASSIGNMENT((#114));
#57=ADVANCED_FACE('',(#115,#116),#117,.F.);
#58=PRESENTATION_STYLE_ASSIGNMENT((#118));
#59=ADVANCED_FACE('',(#119),#120,.F.);
#60=PRESENTATION_STYLE_ASSIGNMENT((#121));
#61=ADVANCED_FACE('',(#122),#123,.F.);
#62=PRESENTATION_STYLE_ASSIGNMENT((#124));
#63=ADVANCED_FACE('',(#125),#126,.F.);
#64=PRESENTATION_STYLE_ASSIGNMENT((#127));
#65=ADVANCED_FACE('',(#128),#129,.T.);
#66=PRESENTATION_STYLE_ASSIGNMENT((#130));
#67=ADVANCED_FACE('',(#131),#132,.T.);
#68=PRESENTATION_STYLE_ASSIGNMENT((#133));
#69=ADVANCED_FACE('',(#134),#135,.F.);
#70=PRESENTATION_STYLE_ASSIGNMENT((#136));
#71=ADVANCED_FACE('',(#137),#138,.T.);
#72=PRESENTATION_STYLE_ASSIGNMENT((#139));
#73=ADVANCED_FACE('',(#140),#141,.F.);
#74=PRODUCT('1','1','PART-1-DESC',(#142));
#75=PRODUCT_DEFINITION('NONE','NONE',#143,#2);
#76=AXIS2_PLACEMENT_3D('',#144,#145,#146);
#79=LENGTH_MEASURE_WITH_UNIT(LENGTH_MEASURE(1.0),#147);
#82=DIMENSIONAL_EXPONENTS(1.0,0.0,0.0,0.0,0.0,0.0,0.0);
#84=DIMENSIONAL_EXPONENTS(0.0,0.0,0.0,0.0,0.0,0.0,0.0);
#90=SURFACE_STYLE_USAGE(.BOTH.,#148);
#91=FACE_OUTER_BOUND('',#149,.T.);
#92=PLANE('',#150);
#93=SURFACE_STYLE_USAGE(.BOTH.,#151);
#94=FACE_OUTER_BOUND('',#152,.T.);
#95=PLANE('',#153);
#96=SURFACE_STYLE_USAGE(.BOTH.,#154);
#97=FACE_OUTER_BOUND('',#155,.T.);
#98=PLANE('',#156);
#99=SURFACE_STYLE_USAGE(.BOTH.,#157);
#100=FACE_OUTER_BOUND('',#158,.T.);
#101=PLANE('',#159);
#102=SURFACE_STYLE_USAGE(.BOTH.,#160);
#103=FACE_OUTER_BOUND('',#161,.T.);
#104=PLANE('',#162);
#105=SURFACE_STYLE_USAGE(.BOTH.,#163);
#106=FACE_OUTER_BOUND('',#164,.T.);
#107=FACE_BOUND('',#165,.T.);
#108=PLANE('',#166);
#109=SURFACE_STYLE_USAGE(.BOTH.,#167);
#110=FACE_OUTER_BOUND('',#168,.T.);
#111=PLANE('',#169);
#112=SURFACE_STYLE_USAGE(.BOTH.,#170);
#113=CLOSED_SHELL('',(#51,#65,#61,#63,#69,#49,#57,#47,#73,#45,#41,#59,#67,#71,#43,#53));
#114=SURFACE_STYLE_USAGE(.BOTH.,#171);
#115=FACE_OUTER_BOUND('',#172,.T.);
#116=FACE_BOUND('',#173,.T.);
#117=PLANE('',#174);
#118=SURFACE_STYLE_USAGE(.BOTH.,#175);
#119=FACE_OUTER_BOUND('',#176,.T.);
#120=PLANE('',#177);
#121=SURFACE_STYLE_USAGE(.BOTH.,#178);
#122=FACE_OUTER_BOUND('',#179,.T.);
#123=PLANE('',#180);
#124=SURFACE_STYLE_USAGE(.BOTH.,#181);
#125=FACE_OUTER_BOUND('',#182,.T.);
#126=PLANE('',#183);
#127=SURFACE_STYLE_USAGE(.BOTH.,#184);
#128=FACE_OUTER_BOUND('',#185,.T.);
#129=PLANE('',#186);
#130=SURFACE_STYLE_USAGE(.BOTH.,#187);
#131=FACE_OUTER_BOUND('',#188,.T.);
#132=PLANE('',#189);
#133=SURFACE_STYLE_USAGE(.BOTH.,#190);
#134=FACE_OUTER_BOUND('',#191,.T.);
#135=PLANE('',#192);
#136=SURFACE_STYLE_USAGE(.BOTH.,#193);
#137=FACE_OUTER_BOUND('',#194,.T.);
#138=PLANE('',#195);
#139=SURFACE_STYLE_USAGE(.BOTH.,#196);
#140=FACE_OUTER_BOUND('',#197,.T.);
#141=PLANE('',#198);
#142=PRODUCT_CONTEXT('',#27,'mechanical');
#143=PRODUCT_DEFINITION_FORMATION_WITH_SPECIFIED_SOURCE(' ','NONE',#74,.NOT_KNOWN.);
#144=CARTESIAN_POINT('',(0.0,0.0,0.0));
#145=DIRECTION('',(0.0,0.0,1.0));
#146=DIRECTION('',(1.0,0.0,0.0));
#147= (NAMED_UNIT(#82)LENGTH_UNIT()SI_UNIT(.MILLI.,.METRE.));
#148=SURFACE_SIDE_STYLE('',(#200));
#149=EDGE_LOOP('',(#201,#202,#203,#204));
#150=AXIS2_PLACEMENT_3D('',#205,#206,#207);
#151=SURFACE_SIDE_STYLE('',(#208));
#152=EDGE_LOOP('',(#209,#210,#211,#212));
#153=AXIS2_PLACEMENT_3D('',#213,#214,#215);
#154=SURFACE_SIDE_STYLE('',(#216));
#155=EDGE_LOOP('',(#217,#218,#219,#220));
#156=AXIS2_PLACEMENT_3D('',#221,#222,#223);
#157=SURFACE_SIDE_STYLE('',(#224));
#158=EDGE_LOOP('',(#225,#226,#227,#228));
#159=AXIS2_PLACEMENT_3D('',#229,#230,#231);
#160=SURFACE_SIDE_STYLE('',(#232));
#161=EDGE_LOOP('',(#233,#234,#235,#236));
#162=AXIS2_PLACEMENT_3D('',#237,#238,#239);
#163=SURFACE_SIDE_STYLE('',(#240));
#164=EDGE_LOOP('',(#241,#242,#243,#244));
#165=EDGE_LOOP('',(#245,#246,#247,#248));
#166=AXIS2_PLACEMENT_3D('',#249,#250,#251);
#167=SURFACE_SIDE_STYLE('',(#252));
#168=EDGE_LOOP('',(#253,#254,#255,#256));
#169=AXIS2_PLACEMENT_3D('',#257,#258,#259);
#170=SURFACE_SIDE_STYLE('',(#260));
#171=SURFACE_SIDE_STYLE('',(#261));
#172=EDGE_LOOP('',(#262,#263,#264,#265));
#173=EDGE_LOOP('',(#266,#267,#268,#269));
#174=AXIS2_PLACEMENT_3D('',#270,#271,#272);
#175=SURFACE_SIDE_STYLE('',(#273));
#176=EDGE_LOOP('',(#274,#275,#276,#277));
#177=AXIS2_PLACEMENT_3D('',#278,#279,#280);
#178=SURFACE_SIDE_STYLE('',(#281));
#179=EDGE_LOOP('',(#282,#283,#284,#285));
#180=AXIS2_PLACEMENT_3D('',#286,#287,#288);
#181=SURFACE_SIDE_STYLE('',(#289));
#182=EDGE_LOOP('',(#290,#291,#292,#293));
#183=AXIS2_PLACEMENT_3D('',#294,#295,#296);
#184=SURFACE_SIDE_STYLE('',(#297));
#185=EDGE_LOOP('',(#298,#299,#300,#301));
#186=AXIS2_PLACEMENT_3D('',#302,#303,#304);
#187=SURFACE_SIDE_STYLE('',(#305));
#188=EDGE_LOOP('',(#306,#307,#308,#309));
#189=AXIS2_PLACEMENT_3D('',#310,#311,#312);
#190=SURFACE_SIDE_STYLE('',(#313));
#191=EDGE_LOOP('',(#314,#315,#316,#317));
#192=AXIS2_PLACEMENT_3D('',#318,#319,#320);
#193=SURFACE_SIDE_STYLE('',(#321));
#194=EDGE_LOOP('',(#322,#323,#324,#325));
#195=AXIS2_PLACEMENT_3D('',#326,#327,#328);
#196=SURFACE_SIDE_STYLE('',(#329));
#197=EDGE_LOOP('',(#330,#331,#332,#333));
#198=AXIS2_PLACEMENT_3D('',#334,#335,#336);
#200=SURFACE_STYLE_FILL_AREA(#337);
#201=ORIENTED_EDGE('',*,*,#338,.T.);
#202=ORIENTED_EDGE('',*,*,#339,.F.);
#203=ORIENTED_EDGE('',*,*,#340,.F.);
#204=ORIENTED_EDGE('',*,*,#341,.F.);
#205=CARTESIAN_POINT('',(-0.5,0.0,0.199999997019768));
#206=DIRECTION('',(1.0,0.0,0.0));
#207=DIRECTION('',(0.0,1.0,0.0));
#208=SURFACE_STYLE_FILL_AREA(#342);
#209=ORIENTED_EDGE('',*,*,#343,.T.);
#210=ORIENTED_EDGE('',*,*,#344,.T.);
#211=ORIENTED_EDGE('',*,*,#345,.T.);
#212=ORIENTED_EDGE('',*,*,#346,.T.);
#213=CARTESIAN_POINT('',(-0.225,-0.225,0.0250000000000003));
#214=DIRECTION('',(0.0,0.0,1.0));
#215=DIRECTION('',(1.0,0.0,0.0));
#216=SURFACE_STYLE_FILL_AREA(#347);
#217=ORIENTED_EDGE('',*,*,#340,.T.);
#218=ORIENTED_EDGE('',*,*,#348,.F.);
#219=ORIENTED_EDGE('',*,*,#349,.F.);
#220=ORIENTED_EDGE('',*,*,#350,.F.);
#221=CARTESIAN_POINT('',(-0.3625,-0.25,0.199999997019768));
#222=DIRECTION('',(-0.0,1.0,0.0));
#223=DIRECTION('',(1.0,0.0,0.0));
#224=SURFACE_STYLE_FILL_AREA(#351);
#225=ORIENTED_EDGE('',*,*,#352,.T.);
#226=ORIENTED_EDGE('',*,*,#353,.T.);
#227=ORIENTED_EDGE('',*,*,#341,.T.);
#228=ORIENTED_EDGE('',*,*,#350,.T.);
#229=CARTESIAN_POINT('',(-0.3625,0.0,0.399999997019768));
#230=DIRECTION('',(0.0,0.0,1.0));
#231=DIRECTION('',(1.0,0.0,0.0));
#232=SURFACE_STYLE_FILL_AREA(#354);
#233=ORIENTED_EDGE('',*,*,#355,.T.);
#234=ORIENTED_EDGE('',*,*,#356,.F.);
#235=ORIENTED_EDGE('',*,*,#357,.F.);
#236=ORIENTED_EDGE('',*,*,#358,.F.);
#237=CARTESIAN_POINT('',(0.5,0.0,0.199999994039536));
#238=DIRECTION('',(-1.0,0.0,0.0));
#239=DIRECTION('',(0.0,0.0,1.0));
#240=SURFACE_STYLE_FILL_AREA(#359);
#241=ORIENTED_EDGE('',*,*,#360,.T.);
#242=ORIENTED_EDGE('',*,*,#361,.F.);
#243=ORIENTED_EDGE('',*,*,#362,.F.);
#244=ORIENTED_EDGE('',*,*,#363,.F.);
#245=ORIENTED_EDGE('',*,*,#364,.T.);
#246=ORIENTED_EDGE('',*,*,#365,.T.);
#247=ORIENTED_EDGE('',*,*,#366,.F.);
#248=ORIENTED_EDGE('',*,*,#343,.F.);
#249=CARTESIAN_POINT('',(0.225,0.0,0.199999994039536));
#250=DIRECTION('',(1.0,0.0,0.0));
#251=DIRECTION('',(0.0,1.0,0.0));
#252=SURFACE_STYLE_FILL_AREA(#367);
#253=ORIENTED_EDGE('',*,*,#368,.F.);
#254=ORIENTED_EDGE('',*,*,#365,.F.);
#255=ORIENTED_EDGE('',*,*,#369,.F.);
#256=ORIENTED_EDGE('',*,*,#370,.F.);
#257=CARTESIAN_POINT('',(-0.225,-0.225,0.375));
#258=DIRECTION('',(0.0,0.0,1.0));
#259=DIRECTION('',(1.0,0.0,0.0));
#260=SURFACE_STYLE_FILL_AREA(#371);
#261=SURFACE_STYLE_FILL_AREA(#372);
#262=ORIENTED_EDGE('',*,*,#349,.T.);
#263=ORIENTED_EDGE('',*,*,#373,.F.);
#264=ORIENTED_EDGE('',*,*,#374,.F.);
#265=ORIENTED_EDGE('',*,*,#352,.F.);
#266=ORIENTED_EDGE('',*,*,#375,.F.);
#267=ORIENTED_EDGE('',*,*,#345,.F.);
#268=ORIENTED_EDGE('',*,*,#376,.T.);
#269=ORIENTED_EDGE('',*,*,#370,.T.);
#270=CARTESIAN_POINT('',(-0.225,0.0,0.199999997019768));
#271=DIRECTION('',(-1.0,0.0,0.0));
#272=DIRECTION('',(0.0,0.0,1.0));
#273=SURFACE_STYLE_FILL_AREA(#377);
#274=ORIENTED_EDGE('',*,*,#374,.T.);
#275=ORIENTED_EDGE('',*,*,#378,.F.);
#276=ORIENTED_EDGE('',*,*,#338,.F.);
#277=ORIENTED_EDGE('',*,*,#353,.F.);
#278=CARTESIAN_POINT('',(-0.3625,0.25,0.199999997019768));
#279=DIRECTION('',(0.0,-1.0,0.0));
#280=DIRECTION('',(0.0,0.0,-1.0));
#281=SURFACE_STYLE_FILL_AREA(#379);
#282=ORIENTED_EDGE('',*,*,#356,.T.);
#283=ORIENTED_EDGE('',*,*,#380,.T.);
#284=ORIENTED_EDGE('',*,*,#361,.T.);
#285=ORIENTED_EDGE('',*,*,#381,.T.);
#286=CARTESIAN_POINT('',(0.3625,0.0,-2.98023186684482E-009));
#287=DIRECTION('',(0.0,0.0,1.0));
#288=DIRECTION('',(1.0,0.0,0.0));
#289=SURFACE_STYLE_FILL_AREA(#382);
#290=ORIENTED_EDGE('',*,*,#362,.T.);
#291=ORIENTED_EDGE('',*,*,#380,.F.);
#292=ORIENTED_EDGE('',*,*,#355,.F.);
#293=ORIENTED_EDGE('',*,*,#383,.F.);
#294=CARTESIAN_POINT('',(0.3625,-0.25,0.199999994039536));
#295=DIRECTION('',(-0.0,1.0,0.0));
#296=DIRECTION('',(1.0,0.0,0.0));
#297=SURFACE_STYLE_FILL_AREA(#384);
#298=ORIENTED_EDGE('',*,*,#358,.T.);
#299=ORIENTED_EDGE('',*,*,#385,.T.);
#300=ORIENTED_EDGE('',*,*,#363,.T.);
#301=ORIENTED_EDGE('',*,*,#383,.T.);
#302=CARTESIAN_POINT('',(0.3625,0.0,0.399999991059304));
#303=DIRECTION('',(0.0,0.0,1.0));
#304=DIRECTION('',(1.0,0.0,0.0));
#305=SURFACE_STYLE_FILL_AREA(#386);
#306=ORIENTED_EDGE('',*,*,#368,.T.);
#307=ORIENTED_EDGE('',*,*,#376,.F.);
#308=ORIENTED_EDGE('',*,*,#344,.F.);
#309=ORIENTED_EDGE('',*,*,#366,.T.);
#310=CARTESIAN_POINT('',(-0.225,-0.225,0.375));
#311=DIRECTION('',(-1.11022302462516E-016,-1.0,-0.0));
#312=DIRECTION('',(-1.0,1.11022302462516E-016,0.0));
#313=SURFACE_STYLE_FILL_AREA(#387);
#314=ORIENTED_EDGE('',*,*,#357,.T.);
#315=ORIENTED_EDGE('',*,*,#381,.F.);
#316=ORIENTED_EDGE('',*,*,#360,.F.);
#317=ORIENTED_EDGE('',*,*,#385,.F.);
#318=CARTESIAN_POINT('',(0.3625,0.25,0.199999994039536));
#319=DIRECTION('',(0.0,-1.0,0.0));
#320=DIRECTION('',(0.0,0.0,-1.0));
#321=SURFACE_STYLE_FILL_AREA(#388);
#322=ORIENTED_EDGE('',*,*,#369,.T.);
#323=ORIENTED_EDGE('',*,*,#364,.F.);
#324=ORIENTED_EDGE('',*,*,#346,.F.);
#325=ORIENTED_EDGE('',*,*,#375,.T.);
#326=CARTESIAN_POINT('',(-0.225,0.225,0.0250000000000003));
#327=DIRECTION('',(-0.0,1.0,0.0));
#328=DIRECTION('',(1.0,0.0,0.0));
#329=SURFACE_STYLE_FILL_AREA(#389);
#330=ORIENTED_EDGE('',*,*,#373,.T.);
#331=ORIENTED_EDGE('',*,*,#348,.T.);
#332=ORIENTED_EDGE('',*,*,#339,.T.);
#333=ORIENTED_EDGE('',*,*,#378,.T.);
#334=CARTESIAN_POINT('',(-0.3625,0.0,-2.98023192235597E-009));
#335=DIRECTION('',(0.0,0.0,1.0));
#336=DIRECTION('',(1.0,0.0,0.0));
#337=FILL_AREA_STYLE('',(#390));
#338=EDGE_CURVE('',#391,#392,#393,.T.);
#339=EDGE_CURVE('',#394,#392,#395,.T.);
#340=EDGE_CURVE('',#396,#394,#397,.T.);
#341=EDGE_CURVE('',#391,#396,#398,.T.);
#342=FILL_AREA_STYLE('',(#399));
#343=EDGE_CURVE('',#400,#401,#402,.T.);
#344=EDGE_CURVE('',#401,#403,#404,.T.);
#345=EDGE_CURVE('',#403,#405,#406,.T.);
#346=EDGE_CURVE('',#405,#400,#407,.T.);
#347=FILL_AREA_STYLE('',(#408));
#348=EDGE_CURVE('',#409,#394,#410,.T.);
#349=EDGE_CURVE('',#411,#409,#412,.T.);
#350=EDGE_CURVE('',#396,#411,#413,.T.);
#351=FILL_AREA_STYLE('',(#414));
#352=EDGE_CURVE('',#411,#415,#416,.T.);
#353=EDGE_CURVE('',#415,#391,#417,.T.);
#354=FILL_AREA_STYLE('',(#418));
#355=EDGE_CURVE('',#419,#420,#421,.T.);
#356=EDGE_CURVE('',#422,#420,#423,.T.);
#357=EDGE_CURVE('',#424,#422,#425,.T.);
#358=EDGE_CURVE('',#419,#424,#426,.T.);
#359=FILL_AREA_STYLE('',(#427));
#360=EDGE_CURVE('',#428,#429,#430,.T.);
#361=EDGE_CURVE('',#431,#429,#432,.T.);
#362=EDGE_CURVE('',#433,#431,#434,.T.);
#363=EDGE_CURVE('',#428,#433,#435,.T.);
#364=EDGE_CURVE('',#400,#436,#437,.T.);
#365=EDGE_CURVE('',#436,#438,#439,.T.);
#366=EDGE_CURVE('',#401,#438,#440,.T.);
#367=FILL_AREA_STYLE('',(#441));
#368=EDGE_CURVE('',#438,#442,#443,.T.);
#369=EDGE_CURVE('',#444,#436,#445,.T.);
#370=EDGE_CURVE('',#442,#444,#446,.T.);
#371=FILL_AREA_STYLE('',(#447));
#372=FILL_AREA_STYLE('',(#448));
#373=EDGE_CURVE('',#449,#409,#450,.T.);
#374=EDGE_CURVE('',#415,#449,#451,.T.);
#375=EDGE_CURVE('',#405,#444,#452,.T.);
#376=EDGE_CURVE('',#403,#442,#453,.T.);
#377=FILL_AREA_STYLE('',(#454));
#378=EDGE_CURVE('',#392,#449,#455,.T.);
#379=FILL_AREA_STYLE('',(#456));
#380=EDGE_CURVE('',#420,#431,#457,.T.);
#381=EDGE_CURVE('',#429,#422,#458,.T.);
#382=FILL_AREA_STYLE('',(#459));
#383=EDGE_CURVE('',#433,#419,#460,.T.);
#384=FILL_AREA_STYLE('',(#461));
#385=EDGE_CURVE('',#424,#428,#462,.T.);
#386=FILL_AREA_STYLE('',(#463));
#387=FILL_AREA_STYLE('',(#464));
#388=FILL_AREA_STYLE('',(#465));
#389=FILL_AREA_STYLE('',(#466));
#390=FILL_AREA_STYLE_COLOUR('',#467);
#391=VERTEX_POINT('',#468);
#392=VERTEX_POINT('',#469);
#393=LINE('',#470,#471);
#394=VERTEX_POINT('',#472);
#395=LINE('',#473,#474);
#396=VERTEX_POINT('',#475);
#397=LINE('',#476,#477);
#398=LINE('',#478,#479);
#399=FILL_AREA_STYLE_COLOUR('',#480);
#400=VERTEX_POINT('',#481);
#401=VERTEX_POINT('',#482);
#402=LINE('',#483,#484);
#403=VERTEX_POINT('',#485);
#404=LINE('',#486,#487);
#405=VERTEX_POINT('',#488);
#406=LINE('',#489,#490);
#407=LINE('',#491,#492);
#408=FILL_AREA_STYLE_COLOUR('',#493);
#409=VERTEX_POINT('',#494);
#410=LINE('',#495,#496);
#411=VERTEX_POINT('',#497);
#412=LINE('',#498,#499);
#413=LINE('',#500,#501);
#414=FILL_AREA_STYLE_COLOUR('',#502);
#415=VERTEX_POINT('',#503);
#416=LINE('',#504,#505);
#417=LINE('',#506,#507);
#418=FILL_AREA_STYLE_COLOUR('',#508);
#419=VERTEX_POINT('',#509);
#420=VERTEX_POINT('',#510);
#421=LINE('',#511,#512);
#422=VERTEX_POINT('',#513);
#423=LINE('',#514,#515);
#424=VERTEX_POINT('',#516);
#425=LINE('',#517,#518);
#426=LINE('',#519,#520);
#427=FILL_AREA_STYLE_COLOUR('',#521);
#428=VERTEX_POINT('',#522);
#429=VERTEX_POINT('',#523);
#430=LINE('',#524,#525);
#431=VERTEX_POINT('',#526);
#432=LINE('',#527,#528);
#433=VERTEX_POINT('',#529);
#434=LINE('',#530,#531);
#435=LINE('',#532,#533);
#436=VERTEX_POINT('',#534);
#437=LINE('',#535,#536);
#438=VERTEX_POINT('',#537);
#439=LINE('',#538,#539);
#440=LINE('',#540,#541);
#441=FILL_AREA_STYLE_COLOUR('',#542);
#442=VERTEX_POINT('',#543);
#443=LINE('',#544,#545);
#444=VERTEX_POINT('',#546);
#445=LINE('',#547,#548);
#446=LINE('',#549,#550);
#447=FILL_AREA_STYLE_COLOUR('',#551);
#448=FILL_AREA_STYLE_COLOUR('',#552);
#449=VERTEX_POINT('',#553);
#450=LINE('',#554,#555);
#451=LINE('',#556,#557);
#452=LINE('',#558,#559);
#453=LINE('',#560,#561);
#454=FILL_AREA_STYLE_COLOUR('',#562);
#455=LINE('',#563,#564);
#456=FILL_AREA_STYLE_COLOUR('',#565);
#457=LINE('',#566,#567);
#458=LINE('',#568,#569);
#459=FILL_AREA_STYLE_COLOUR('',#570);
#460=LINE('',#571,#572);
#461=FILL_AREA_STYLE_COLOUR('',#573);
#462=LINE('',#574,#575);
#463=FILL_AREA_STYLE_COLOUR('',#576);
#464=FILL_AREA_STYLE_COLOUR('',#577);
#465=FILL_AREA_STYLE_COLOUR('',#578);
#466=FILL_AREA_STYLE_COLOUR('',#579);
#467=COLOUR_RGB('',0.937254905700684,0.909803926944733,0.937254905700684);
#468=CARTESIAN_POINT('',(-0.5,0.25,0.399999997019768));
#469=CARTESIAN_POINT('',(-0.5,0.25,-2.98023192235597E-009));
#470=CARTESIAN_POINT('',(-0.5,0.25,0.199999997019768));
#471=VECTOR('',#580,1.0);
#472=CARTESIAN_POINT('',(-0.5,-0.25,-2.98023192235597E-009));
#473=CARTESIAN_POINT('',(-0.5,0.0,-2.98023192235597E-009));
#474=VECTOR('',#581,1.0);
#475=CARTESIAN_POINT('',(-0.5,-0.25,0.399999997019768));
#476=CARTESIAN_POINT('',(-0.5,-0.25,0.199999997019768));
#477=VECTOR('',#582,1.0);
#478=CARTESIAN_POINT('',(-0.5,0.0,0.399999997019768));
#479=VECTOR('',#583,1.0);
#480=COLOUR_RGB('',0.329411774873734,0.329411774873734,0.329411774873734);
#481=CARTESIAN_POINT('',(0.225,0.225,0.0250000000000003));
#482=CARTESIAN_POINT('',(0.225,-0.225,0.0250000000000003));
#483=CARTESIAN_POINT('',(0.225,0.225,0.0250000000000003));
#484=VECTOR('',#584,0.9);
#485=CARTESIAN_POINT('',(-0.225,-0.225,0.0250000000000003));
#486=CARTESIAN_POINT('',(0.225,-0.225,0.0250000000000003));
#487=VECTOR('',#585,0.899999999999999);
#488=CARTESIAN_POINT('',(-0.225,0.225,0.0250000000000003));
#489=CARTESIAN_POINT('',(-0.225,-0.225,0.0250000000000003));
#490=VECTOR('',#586,0.9);
#491=CARTESIAN_POINT('',(-0.225,0.225,0.0250000000000003));
#492=VECTOR('',#587,0.899999999999999);
#493=COLOUR_RGB('',0.937254905700684,0.909803926944733,0.937254905700684);
#494=CARTESIAN_POINT('',(-0.225,-0.25,-2.98023192235597E-009));
#495=CARTESIAN_POINT('',(-0.3625,-0.25,-2.98023192235597E-009));
#496=VECTOR('',#588,1.0);
#497=CARTESIAN_POINT('',(-0.225,-0.25,0.399999997019768));
#498=CARTESIAN_POINT('',(-0.225,-0.25,0.199999997019768));
#499=VECTOR('',#589,1.0);
#500=CARTESIAN_POINT('',(-0.3625,-0.25,0.399999997019768));
#501=VECTOR('',#590,1.0);
#502=COLOUR_RGB('',0.937254905700684,0.909803926944733,0.937254905700684);
#503=CARTESIAN_POINT('',(-0.225,0.25,0.399999997019768));
#504=CARTESIAN_POINT('',(-0.225,0.0,0.399999997019768));
#505=VECTOR('',#591,1.0);
#506=CARTESIAN_POINT('',(-0.3625,0.25,0.399999997019768));
#507=VECTOR('',#592,1.0);
#508=COLOUR_RGB('',0.937254905700684,0.909803926944733,0.937254905700684);
#509=CARTESIAN_POINT('',(0.5,-0.25,0.399999991059304));
#510=CARTESIAN_POINT('',(0.5,-0.25,-2.98023186684482E-009));
#511=CARTESIAN_POINT('',(0.5,-0.25,0.199999994039536));
#512=VECTOR('',#593,1.0);
#513=CARTESIAN_POINT('',(0.5,0.25,-2.98023186684482E-009));
#514=CARTESIAN_POINT('',(0.5,0.0,-2.98023186684482E-009));
#515=VECTOR('',#594,1.0);
#516=CARTESIAN_POINT('',(0.5,0.25,0.399999991059304));
#517=CARTESIAN_POINT('',(0.5,0.25,0.199999994039536));
#518=VECTOR('',#595,1.0);
#519=CARTESIAN_POINT('',(0.5,0.0,0.399999991059304));
#520=VECTOR('',#596,1.0);
#521=COLOUR_RGB('',0.937254905700684,0.909803926944733,0.937254905700684);
#522=CARTESIAN_POINT('',(0.225,0.25,0.399999991059304));
#523=CARTESIAN_POINT('',(0.225,0.25,-2.98023186684482E-009));
#524=CARTESIAN_POINT('',(0.225,0.25,0.199999994039536));
#525=VECTOR('',#597,1.0);
#526=CARTESIAN_POINT('',(0.225,-0.25,-2.98023186684482E-009));
#527=CARTESIAN_POINT('',(0.225,0.0,-2.98023186684482E-009));
#528=VECTOR('',#598,1.0);
#529=CARTESIAN_POINT('',(0.225,-0.25,0.399999991059304));
#530=CARTESIAN_POINT('',(0.225,-0.25,0.199999994039536));
#531=VECTOR('',#599,1.0);
#532=CARTESIAN_POINT('',(0.225,0.0,0.399999991059304));
#533=VECTOR('',#600,1.0);
#534=CARTESIAN_POINT('',(0.225,0.225,0.375));
#535=CARTESIAN_POINT('',(0.225,0.225,0.0250000000000003));
#536=VECTOR('',#601,0.00437499993480742);
#537=CARTESIAN_POINT('',(0.225,-0.225,0.375));
#538=CARTESIAN_POINT('',(0.225,0.225,0.375));
#539=VECTOR('',#602,0.9);
#540=CARTESIAN_POINT('',(0.225,-0.225,0.0250000000000003));
#541=VECTOR('',#603,0.00437499993480742);
#542=COLOUR_RGB('',0.329411774873734,0.329411774873734,0.329411774873734);
#543=CARTESIAN_POINT('',(-0.225,-0.225,0.375));
#544=CARTESIAN_POINT('',(0.225,-0.225,0.375));
#545=VECTOR('',#604,0.899999999999999);
#546=CARTESIAN_POINT('',(-0.225,0.225,0.375));
#547=CARTESIAN_POINT('',(-0.225,0.225,0.375));
#548=VECTOR('',#605,0.899999999999999);
#549=CARTESIAN_POINT('',(-0.225,-0.225,0.375));
#550=VECTOR('',#606,0.9);
#551=COLOUR_RGB('',0.329411774873734,0.329411774873734,0.329411774873734);
#552=COLOUR_RGB('',0.937254905700684,0.909803926944733,0.937254905700684);
#553=CARTESIAN_POINT('',(-0.225,0.25,-2.98023192235597E-009));
#554=CARTESIAN_POINT('',(-0.225,0.0,-2.98023192235597E-009));
#555=VECTOR('',#607,1.0);
#556=CARTESIAN_POINT('',(-0.225,0.25,0.199999997019768));
#557=VECTOR('',#608,1.0);
#558=CARTESIAN_POINT('',(-0.225,0.225,0.0250000000000003));
#559=VECTOR('',#609,0.00437499993480742);
#560=CARTESIAN_POINT('',(-0.225,-0.225,0.0250000000000003));
#561=VECTOR('',#610,0.00437499993480742);
#562=COLOUR_RGB('',0.937254905700684,0.909803926944733,0.937254905700684);
#563=CARTESIAN_POINT('',(-0.3625,0.25,-2.98023192235597E-009));
#564=VECTOR('',#611,1.0);
#565=COLOUR_RGB('',0.937254905700684,0.909803926944733,0.937254905700684);
#566=CARTESIAN_POINT('',(0.3625,-0.25,-2.98023186684482E-009));
#567=VECTOR('',#612,1.0);
#568=CARTESIAN_POINT('',(0.3625,0.25,-2.98023186684482E-009));
#569=VECTOR('',#613,1.0);
#570=COLOUR_RGB('',0.937254905700684,0.909803926944733,0.937254905700684);
#571=CARTESIAN_POINT('',(0.3625,-0.25,0.399999991059304));
#572=VECTOR('',#614,1.0);
#573=COLOUR_RGB('',0.937254905700684,0.909803926944733,0.937254905700684);
#574=CARTESIAN_POINT('',(0.3625,0.25,0.399999991059304));
#575=VECTOR('',#615,1.0);
#576=COLOUR_RGB('',0.329411774873734,0.329411774873734,0.329411774873734);
#577=COLOUR_RGB('',0.937254905700684,0.909803926944733,0.937254905700684);
#578=COLOUR_RGB('',0.329411774873734,0.329411774873734,0.329411774873734);
#579=COLOUR_RGB('',0.937254905700684,0.909803926944733,0.937254905700684);
#580=DIRECTION('',(0.0,0.0,-1.0));
#581=DIRECTION('',(0.0,1.0,0.0));
#582=DIRECTION('',(0.0,0.0,-1.0));
#583=DIRECTION('',(0.0,-1.0,0.0));
#584=DIRECTION('',(0.0,-1.0,0.0));
#585=DIRECTION('',(-1.0,1.2335811384724E-016,0.0));
#586=DIRECTION('',(0.0,1.0,0.0));
#587=DIRECTION('',(1.0,0.0,0.0));
#588=DIRECTION('',(-1.0,0.0,0.0));
#589=DIRECTION('',(0.0,0.0,-1.0));
#590=DIRECTION('',(1.0,0.0,0.0));
#591=DIRECTION('',(0.0,1.0,0.0));
#592=DIRECTION('',(-1.0,0.0,0.0));
#593=DIRECTION('',(0.0,0.0,-1.0));
#594=DIRECTION('',(0.0,-1.0,0.0));
#595=DIRECTION('',(0.0,0.0,-1.0));
#596=DIRECTION('',(0.0,1.0,0.0));
#597=DIRECTION('',(0.0,0.0,-1.0));
#598=DIRECTION('',(0.0,1.0,0.0));
#599=DIRECTION('',(0.0,0.0,-1.0));
#600=DIRECTION('',(0.0,-1.0,0.0));
#601=DIRECTION('',(0.0,0.0,1.0));
#602=DIRECTION('',(0.0,-1.0,0.0));
#603=DIRECTION('',(0.0,0.0,1.0));
#604=DIRECTION('',(-1.0,1.2335811384724E-016,0.0));
#605=DIRECTION('',(1.0,0.0,0.0));
#606=DIRECTION('',(0.0,1.0,0.0));
#607=DIRECTION('',(0.0,-1.0,0.0));
#608=DIRECTION('',(0.0,0.0,-1.0));
#609=DIRECTION('',(0.0,0.0,1.0));
#610=DIRECTION('',(0.0,0.0,1.0));
#611=DIRECTION('',(1.0,0.0,0.0));
#612=DIRECTION('',(-1.0,0.0,0.0));
#613=DIRECTION('',(1.0,0.0,0.0));
#614=DIRECTION('',(1.0,0.0,0.0));
#615=DIRECTION('',(-1.0,0.0,0.0));
ENDSEC;
END-ISO-10303-21;
